<svg width="1920" height="1080" viewBox="0 0 1920 1080" fill="none" xmlns="http://www.w3.org/2000/svg">
<path d="M0 0H1920V1080H0V0Z" fill="url(#paint0_linear_17_2)"/>
<path d="M1627.6 31.1952C1627.6 30.9648 1627.6 30.7344 1627.6 30.5034" stroke="white" stroke-width="2.9602" stroke-miterlimit="10" stroke-linecap="round" stroke-linejoin="round"/>
<path d="M1586.99 106.576C1586.75 106.807 1586.5 107.037 1586.25 107.268" stroke="white" stroke-width="2.9602" stroke-miterlimit="10" stroke-linecap="round" stroke-linejoin="round"/>
<path d="M1488.06 56.0916C1487.81 56.0916 1487.56 56.0916 1487.32 56.0916" stroke="white" stroke-width="2.9602" stroke-miterlimit="10" stroke-linecap="round" stroke-linejoin="round"/>
<path d="M1516.85 126.631C1516.85 126.401 1516.85 126.17 1516.85 125.939" stroke="white" stroke-width="2.9602" stroke-miterlimit="10" stroke-linecap="round" stroke-linejoin="round"/>
<path d="M1732.45 190.947C1732.45 190.717 1732.45 190.486 1732.45 190.255" stroke="white" stroke-width="2.9602" stroke-miterlimit="10" stroke-linecap="round" stroke-linejoin="round"/>
<path d="M1869.78 207.545C1870.02 207.314 1870.27 207.084 1870.52 206.853" stroke="white" stroke-width="2.9602" stroke-miterlimit="10" stroke-linecap="round" stroke-linejoin="round"/>
<path d="M1829.17 152.219C1829.17 152.45 1829.17 152.68 1829.17 152.911" stroke="white" stroke-width="2.9602" stroke-miterlimit="10" stroke-linecap="round" stroke-linejoin="round"/>
<path d="M1862.39 63.0072C1862.39 62.7768 1862.39 62.5464 1862.39 62.3154" stroke="white" stroke-width="2.9602" stroke-miterlimit="10" stroke-linecap="round" stroke-linejoin="round"/>
<path d="M1883.81 42.9516C1884.05 42.4908 1884.3 42.0294 1884.55 41.5686" stroke="white" stroke-width="2.9602" stroke-miterlimit="10" stroke-linecap="round" stroke-linejoin="round"/>
<path d="M1903 69.231C1903 69.0006 1903 68.7702 1903 68.5392" stroke="white" stroke-width="2.9602" stroke-miterlimit="10" stroke-linecap="round" stroke-linejoin="round"/>
<path d="M1797.42 56.0916C1797.17 56.0916 1796.93 56.0916 1796.68 56.0916" stroke="white" stroke-width="2.9602" stroke-miterlimit="10" stroke-linecap="round" stroke-linejoin="round"/>
<path d="M1817.7 231.641C1817.7 231.232 1817.7 230.824 1817.7 230.416" stroke="white" stroke-width="2.9602" stroke-miterlimit="10" stroke-linecap="round" stroke-linejoin="round"/>
<path d="M1768 349.257C1768 348.848 1768 348.44 1768 348.032" stroke="white" stroke-width="2.9602" stroke-miterlimit="10" stroke-linecap="round" stroke-linejoin="round"/>
<path d="M1294.49 83.3964C1294.05 83.805 1293.62 84.213 1293.18 84.6216" stroke="white" stroke-width="2.9602" stroke-miterlimit="10" stroke-linecap="round" stroke-linejoin="round"/>
<path d="M1242.17 50.3166C1242.17 49.908 1242.17 49.5 1242.17 49.0914" stroke="white" stroke-width="2.9602" stroke-miterlimit="10" stroke-linecap="round" stroke-linejoin="round"/>
<path d="M1196.39 189.985C1195.95 189.985 1195.52 189.985 1195.08 189.985" stroke="white" stroke-width="2.9602" stroke-miterlimit="10" stroke-linecap="round" stroke-linejoin="round"/>
<path d="M1166.3 252.469C1166.74 252.469 1167.17 252.469 1167.61 252.469" stroke="white" stroke-width="2.9602" stroke-miterlimit="10" stroke-linecap="round" stroke-linejoin="round"/>
<path d="M1000.18 109.124C1001.49 109.124 1002.8 109.124 1004.11 109.124" stroke="white" stroke-width="2.9602" stroke-miterlimit="10" stroke-linecap="round" stroke-linejoin="round"/>
<path d="M1110.06 101.774C1109.62 101.774 1109.19 101.774 1108.75 101.774" stroke="white" stroke-width="2.9602" stroke-miterlimit="10" stroke-linecap="round" stroke-linejoin="round"/>
<path d="M794.824 186.31C795.259 185.902 795.695 185.494 796.132 185.085" stroke="white" stroke-width="2.9602" stroke-miterlimit="10" stroke-linecap="round" stroke-linejoin="round"/>
<path d="M718.958 107.899C719.394 108.308 719.83 108.716 720.266 109.124" stroke="white" stroke-width="2.9602" stroke-miterlimit="10" stroke-linecap="round" stroke-linejoin="round"/>
<path d="M81.9483 247.568C82.3842 247.568 82.82 247.568 83.2566 247.568" stroke="white" stroke-width="2.9602" stroke-miterlimit="10" stroke-linecap="round" stroke-linejoin="round"/>
<path d="M454.736 227.966C454.736 226.954 454.736 226.954 454.736 227.966" stroke="white" stroke-width="2.9602" stroke-miterlimit="10" stroke-linecap="round" stroke-linejoin="round"/>
<path d="M372.33 82.1712C372.766 82.1712 373.202 82.1712 373.639 82.1712" stroke="white" stroke-width="2.9602" stroke-miterlimit="10" stroke-linecap="round" stroke-linejoin="round"/>
<path d="M479.588 39.2904C479.588 39.699 479.588 40.107 479.588 40.5156" stroke="white" stroke-width="2.9602" stroke-miterlimit="10" stroke-linecap="round" stroke-linejoin="round"/>
<path d="M316.085 24.588C316.521 24.9966 316.957 25.4046 317.393 25.8132" stroke="white" stroke-width="2.9602" stroke-miterlimit="10" stroke-linecap="round" stroke-linejoin="round"/>
<path d="M214.059 13.5618C214.059 13.1532 214.059 12.7452 214.059 12.3366" stroke="white" stroke-width="2.9602" stroke-miterlimit="10" stroke-linecap="round" stroke-linejoin="round"/>
<path d="M44.0158 69.9192C43.5799 69.9192 43.1441 69.9192 42.7075 69.9192" stroke="white" stroke-width="2.9602" stroke-miterlimit="10" stroke-linecap="round" stroke-linejoin="round"/>
<path d="M88.4884 11.1114C88.9243 10.7028 89.3602 10.2948 89.7967 9.8862" stroke="white" stroke-width="2.9602" stroke-miterlimit="10" stroke-linecap="round" stroke-linejoin="round"/>
<g opacity="0.4">
<path opacity="0.4" d="M353.124 193.664C352.724 193.664 352.323 193.664 351.923 193.664" stroke="white" stroke-width="2.7185" stroke-miterlimit="10" stroke-linecap="round" stroke-linejoin="round"/>
<path opacity="0.4" d="M696.675 230.794C697.075 230.794 697.476 230.794 697.876 230.794" stroke="white" stroke-width="2.7185" stroke-miterlimit="10" stroke-linecap="round" stroke-linejoin="round"/>
<path opacity="0.4" d="M1320.11 35.0208C1319.71 35.0208 1319.31 35.0208 1318.91 35.0208" stroke="white" stroke-width="2.7185" stroke-miterlimit="10" stroke-linecap="round" stroke-linejoin="round"/>
<path opacity="0.4" d="M1394.59 157.66C1394.19 157.66 1393.79 157.66 1393.39 157.66" stroke="white" stroke-width="2.7185" stroke-miterlimit="10" stroke-linecap="round" stroke-linejoin="round"/>
<path opacity="0.4" d="M1511.11 183.538C1511.11 183.913 1511.11 184.288 1511.11 184.663" stroke="white" stroke-width="2.7185" stroke-miterlimit="10" stroke-linecap="round" stroke-linejoin="round"/>
<path opacity="0.4" d="M1739.34 33.8958C1738.94 33.8958 1738.54 33.8958 1738.14 33.8958" stroke="white" stroke-width="2.7185" stroke-miterlimit="10" stroke-linecap="round" stroke-linejoin="round"/>
<path opacity="0.4" d="M1783.79 118.28C1783.79 118.655 1783.79 119.03 1783.79 119.405" stroke="white" stroke-width="2.7185" stroke-miterlimit="10" stroke-linecap="round" stroke-linejoin="round"/>
<path opacity="0.4" d="M1825.83 91.2774C1825.83 90.9024 1825.83 90.5274 1825.83 90.1524" stroke="white" stroke-width="2.7185" stroke-miterlimit="10" stroke-linecap="round" stroke-linejoin="round"/>
<path opacity="0.4" d="M1756.16 209.416C1756.56 209.791 1756.96 210.166 1757.36 210.541" stroke="white" stroke-width="2.7185" stroke-miterlimit="10" stroke-linecap="round" stroke-linejoin="round"/>
<path opacity="0.4" d="M1783.79 263.422C1784.19 263.422 1784.59 263.422 1784.99 263.422" stroke="white" stroke-width="2.7185" stroke-miterlimit="10" stroke-linecap="round" stroke-linejoin="round"/>
</g>
<path d="M265 152C265 181.969 253.147 210.711 232.049 231.903C210.952 253.095 182.337 265 152.5 265C122.663 265 94.0483 253.095 72.9505 231.903C51.8526 210.711 40 181.969 40 152C40 129.651 46.598 107.803 58.9597 89.2206C71.3213 70.6378 88.8914 56.1544 109.448 47.6017C130.005 39.049 152.625 36.8112 174.448 41.1713C196.27 45.5314 216.316 56.2936 232.049 72.097C247.783 87.9003 258.497 108.035 262.838 129.955C267.179 151.875 264.951 174.595 256.436 195.243C247.922 215.891 233.502 233.539 215.002 245.956C196.501 258.373 174.75 265 152.5 265V39.0001C182.337 39.0001 210.952 50.9054 232.049 72.097C253.147 93.2886 265 122.031 265 152Z" fill="#F9CB4E"/>
<path d="M265 153.5C265 182.276 255.044 209.873 237.322 230.221C219.599 250.569 195.563 262 170.5 262C145.437 262 121.401 250.569 103.678 230.221C85.9563 209.873 76 182.276 76 153.5C76 132.041 81.5424 111.063 91.9261 93.2207C102.31 75.3779 117.069 61.4712 134.336 53.2591C151.604 45.047 170.605 42.8983 188.936 47.0848C207.267 51.2713 224.106 61.605 237.322 76.7789C250.538 91.9529 259.538 111.286 263.184 132.333C266.83 153.38 264.959 175.195 257.807 195.021C250.654 214.847 238.542 231.792 223.001 243.714C207.461 255.637 189.19 262 170.5 262C151.81 262 133.539 255.637 117.999 243.714C102.458 231.792 90.3459 214.847 83.1934 195.021C76.0409 175.195 74.1695 153.38 77.8158 132.333C81.4621 111.286 90.4624 91.9529 103.678 76.7789C116.894 61.605 133.733 51.2713 152.064 47.0848C170.395 42.8983 189.396 45.047 206.664 53.2591C223.931 61.4712 238.69 75.3779 249.074 93.2207C259.458 111.063 265 132.041 265 153.5Z" fill="#FAD775"/>
<g opacity="0.37">
<path opacity="0.37" d="M107.227 129.168C107.227 133.926 105.602 138.489 102.709 141.853C99.8168 145.217 95.8936 147.107 91.8029 147.107C87.7122 147.107 83.789 145.217 80.8965 141.853C78.0039 138.489 76.3789 133.926 76.3789 129.168C76.3789 125.62 77.2835 122.152 78.9783 119.202C80.6731 116.252 83.082 113.953 85.9004 112.595C88.7188 111.237 91.82 110.882 94.812 111.574C97.804 112.266 100.552 113.975 102.709 116.484C104.866 118.992 106.335 122.189 106.931 125.669C107.526 129.148 107.22 132.755 106.053 136.033C104.885 139.311 102.909 142.113 100.372 144.084C97.8356 146.055 94.8535 147.107 91.8029 147.107V111.23C95.8936 111.23 99.8168 113.119 102.709 116.484C105.602 119.848 107.227 124.411 107.227 129.168Z" fill="#ED6349"/>
<path opacity="0.37" d="M203.832 94.106C203.832 99.2962 201.181 104.274 196.461 107.944C191.742 111.614 185.34 113.676 178.666 113.676C171.992 113.676 165.59 111.614 160.871 107.944C156.151 104.274 153.5 99.2962 153.5 94.106C153.5 91.5361 154.151 88.9913 155.416 86.617C156.68 84.2427 158.534 82.0853 160.871 80.2681C163.208 78.4508 165.982 77.0094 169.035 76.0259C172.089 75.0424 175.361 74.5362 178.666 74.5362V113.676C173.689 113.676 168.823 112.528 164.685 110.378C160.546 108.227 157.32 105.171 155.416 101.595C153.511 98.0191 153.012 94.0843 153.984 90.2881C154.955 86.4919 157.351 83.0049 160.871 80.2681C164.39 77.5312 168.875 75.6674 173.756 74.9123C178.638 74.1572 183.698 74.5447 188.297 76.0259C192.895 77.5071 196.826 80.0154 199.591 83.2336C202.356 86.4519 203.832 90.2355 203.832 94.106Z" fill="#ED6349"/>
<path opacity="0.37" d="M183.537 190.324C183.537 194.001 182.468 197.527 180.565 200.126C178.662 202.726 176.081 204.186 173.389 204.186C170.698 204.186 168.117 202.726 166.214 200.126C164.311 197.527 163.242 194.001 163.242 190.324C163.242 187.583 163.837 184.903 164.952 182.623C166.067 180.343 167.652 178.567 169.506 177.517C171.36 176.468 173.401 176.194 175.369 176.729C177.338 177.264 179.146 178.584 180.565 180.522C181.984 182.461 182.95 184.931 183.342 187.62C183.733 190.309 183.532 193.096 182.764 195.629C181.996 198.162 180.696 200.327 179.027 201.85C177.358 203.373 175.396 204.186 173.389 204.186C171.382 204.186 169.421 203.373 167.752 201.85C166.083 200.327 164.783 198.162 164.014 195.629C163.246 193.096 163.045 190.309 163.437 187.62C163.829 184.931 164.795 182.461 166.214 180.522C167.633 178.584 169.441 177.264 171.41 176.729C173.378 176.194 175.418 176.468 177.273 177.517C179.127 178.567 180.712 180.343 181.827 182.623C182.942 184.903 183.537 187.583 183.537 190.324Z" fill="#ED6349"/>
<path opacity="0.37" d="M129.958 213.971C129.958 217.864 128.247 221.597 125.202 224.35C122.157 227.102 118.028 228.649 113.721 228.649C109.415 228.649 105.286 227.102 102.241 224.35C99.196 221.597 97.4854 217.864 97.4854 213.971C97.4854 211.068 98.4376 208.231 100.222 205.817C102.006 203.403 104.541 201.522 107.508 200.411C110.475 199.3 113.74 199.01 116.889 199.576C120.039 200.142 122.932 201.54 125.202 203.593C127.473 205.646 129.019 208.261 129.646 211.108C130.272 213.955 129.951 216.906 128.722 219.588C127.493 222.27 125.412 224.562 122.742 226.175C120.072 227.788 116.933 228.649 113.721 228.649C110.51 228.649 107.371 227.788 104.701 226.175C102.031 224.562 99.9502 222.27 98.7213 219.588C97.4924 216.906 97.1709 213.955 97.7973 211.108C98.4238 208.261 99.9702 205.646 102.241 203.593C104.511 201.54 107.404 200.142 110.554 199.576C113.703 199.01 116.968 199.3 119.935 200.411C122.902 201.522 125.437 203.403 127.221 205.817C129.005 208.231 129.958 211.068 129.958 213.971Z" fill="#ED6349"/>
<path opacity="0.37" d="M153.5 149.961C153.5 151.583 152.859 153.139 151.717 154.286C150.575 155.433 149.027 156.077 147.412 156.077C145.797 156.077 144.248 155.433 143.106 154.286C141.964 153.139 141.323 151.583 141.323 149.961C141.323 148.752 141.68 147.569 142.349 146.564C143.018 145.558 143.969 144.774 145.082 144.311C146.194 143.848 147.418 143.727 148.6 143.963C149.781 144.199 150.866 144.782 151.717 145.637C152.569 146.492 153.149 147.582 153.383 148.768C153.618 149.955 153.498 151.184 153.037 152.302C152.576 153.419 151.796 154.375 150.794 155.047C149.793 155.719 148.616 156.077 147.412 156.077C146.207 156.077 145.03 155.719 144.029 155.047C143.028 154.375 142.247 153.419 141.786 152.302C141.326 151.184 141.205 149.955 141.44 148.768C141.675 147.582 142.255 146.492 143.106 145.637C143.958 144.782 145.043 144.199 146.224 143.963C147.405 143.727 148.629 143.848 149.742 144.311C150.854 144.774 151.805 145.558 152.474 146.564C153.143 147.569 153.5 148.752 153.5 149.961Z" fill="#ED6349"/>
<path opacity="0.37" d="M263.093 173.201C263.093 177.742 261.981 182.098 260.002 185.309C258.023 188.52 255.339 190.324 252.54 190.324C249.741 190.324 247.057 188.52 245.078 185.309C243.099 182.098 241.987 177.742 241.987 173.201C241.987 169.814 242.606 166.503 243.765 163.687C244.925 160.871 246.573 158.677 248.502 157.381C250.43 156.085 252.552 155.746 254.599 156.406C256.646 157.067 258.526 158.698 260.002 161.093C261.478 163.487 262.483 166.539 262.891 169.86C263.298 173.182 263.089 176.625 262.29 179.754C261.491 182.883 260.139 185.557 258.403 187.438C256.668 189.32 254.627 190.324 252.54 190.324C250.453 190.324 248.412 189.32 246.677 187.438C244.942 185.557 243.589 182.883 242.79 179.754C241.991 176.625 241.782 173.182 242.19 169.86C242.597 166.539 243.602 163.487 245.078 161.093C246.554 158.698 248.434 157.067 250.481 156.406C252.528 155.746 254.65 156.085 256.579 157.381C258.507 158.677 260.155 160.871 261.315 163.687C262.474 166.503 263.093 169.814 263.093 173.201Z" fill="#ED6349"/>
<path opacity="0.37" d="M210.326 224.164C210.326 229.462 207.974 234.543 203.788 238.29C199.601 242.036 193.923 244.141 188.002 244.141C185.07 244.141 182.167 243.624 179.459 242.621C176.75 241.617 174.289 240.145 172.216 238.29C170.143 236.435 168.499 234.233 167.377 231.809C166.255 229.385 165.677 226.787 165.677 224.164C165.677 221.54 166.255 218.943 167.377 216.519C168.499 214.095 170.143 211.893 172.216 210.038C174.289 208.183 176.75 206.711 179.459 205.707C182.167 204.703 185.07 204.186 188.002 204.186C190.933 204.186 193.836 204.703 196.545 205.707C199.253 206.711 201.715 208.183 203.788 210.038C205.861 211.893 207.505 214.095 208.627 216.519C209.749 218.943 210.326 221.54 210.326 224.164Z" fill="#ED6349"/>
<path opacity="0.37" d="M225.75 129.984C225.75 131.93 225.194 133.797 224.205 135.173C223.215 136.55 221.873 137.323 220.474 137.323C219.074 137.323 217.732 136.55 216.743 135.173C215.753 133.797 215.197 131.93 215.197 129.984C215.197 128.533 215.507 127.114 216.086 125.907C216.666 124.7 217.49 123.759 218.454 123.204C219.419 122.649 220.479 122.503 221.503 122.786C222.527 123.07 223.467 123.769 224.205 124.795C224.943 125.821 225.445 127.129 225.649 128.552C225.853 129.976 225.748 131.451 225.349 132.792C224.949 134.133 224.273 135.28 223.405 136.086C222.537 136.892 221.517 137.323 220.474 137.323C219.43 137.323 218.41 136.892 217.542 136.086C216.674 135.28 215.998 134.133 215.599 132.792C215.199 131.451 215.095 129.976 215.298 128.552C215.502 127.129 216.005 125.821 216.743 124.795C217.48 123.769 218.421 123.07 219.444 122.786C220.468 122.503 221.529 122.649 222.493 123.204C223.457 123.759 224.281 124.7 224.861 125.907C225.441 127.114 225.75 128.533 225.75 129.984Z" fill="#ED6349"/>
</g>
<path d="M1683.02 210.492C1566.45 137.207 1412.43 129.933 1287.63 191.868L715.886 475.423L764.297 702.994H1920V359.268L1683.02 210.492Z" fill="url(#paint1_linear_17_2)"/>
<path d="M1184.91 501.982C1337.14 490.08 1368.69 403.79 1382.4 338.77C1396.11 273.749 1488 300.198 1518.45 247.3C1548.89 194.403 1518.45 152.966 1518.45 152.966C1440.27 143.598 1359.09 156.382 1287.63 191.868L829.989 418.888C924.617 455.807 1083.43 510.027 1184.91 501.982Z" fill="url(#paint2_linear_17_2)"/>
<path d="M938.88 325.105C885.531 295.68 818.606 293.035 762.514 317.941L735.223 330.064C676.114 356.403 605.623 351.994 551.314 318.603L415.269 235.068C348.343 193.962 258.377 197.598 196.114 244.105L0 390.235V702.994H1625.14L938.88 325.105Z" fill="url(#paint3_linear_17_2)"/>
<path d="M938.88 325.105C905.966 307.031 867.977 299.096 830.537 301.411C819.84 304.607 799.68 315.737 812.571 353.096C829.714 402.688 940.8 428.035 960 485.341C979.2 542.647 929.829 608.77 1009.37 669.382C1030.63 685.582 1088.09 696.162 1161.05 702.994H1625.14L938.88 325.105Z" fill="url(#paint4_linear_17_2)"/>
<path d="M340.526 258.652C375.223 268.9 371.657 316.729 448.457 330.615C525.257 344.611 623.314 344.721 623.314 344.721C597.806 340.864 573.257 332.047 551.314 318.603L415.269 235.068C373.577 209.39 322.834 201.235 275.52 209.941C269.486 230.77 313.92 250.827 340.526 258.652Z" fill="url(#paint5_linear_17_2)"/>
<defs>
<linearGradient id="paint0_linear_17_2" x1="960" y1="0" x2="960" y2="805.688" gradientUnits="userSpaceOnUse">
<stop stop-color="#44164D"/>
<stop offset="0.1488" stop-color="#4A174D"/>
<stop offset="0.3381" stop-color="#59194C"/>
<stop offset="0.5492" stop-color="#731D4A"/>
<stop offset="0.7746" stop-color="#972248"/>
<stop offset="1" stop-color="#C32846"/>
</linearGradient>
<linearGradient id="paint1_linear_17_2" x1="1141.51" y1="172.229" x2="1229.08" y2="414.808" gradientUnits="userSpaceOnUse">
<stop stop-color="#637164"/>
<stop offset="1" stop-color="#0C1941"/>
</linearGradient>
<linearGradient id="paint2_linear_17_2" x1="1177.75" y1="291.445" x2="1218.65" y2="517.87" gradientUnits="userSpaceOnUse">
<stop stop-color="#637164"/>
<stop offset="1" stop-color="#0C1941"/>
</linearGradient>
<linearGradient id="paint3_linear_17_2" x1="874.565" y1="297.55" x2="853.016" y2="431.635" gradientUnits="userSpaceOnUse">
<stop stop-color="#637164"/>
<stop offset="1" stop-color="#3C4F6E"/>
</linearGradient>
<linearGradient id="paint4_linear_17_2" x1="1184.04" y1="376.638" x2="1235.62" y2="726.794" gradientUnits="userSpaceOnUse">
<stop stop-color="#637164"/>
<stop offset="1" stop-color="#355072"/>
</linearGradient>
<linearGradient id="paint5_linear_17_2" x1="438.3" y1="241.618" x2="464.427" y2="386.246" gradientUnits="userSpaceOnUse">
<stop stop-color="#637164"/>
<stop offset="1" stop-color="#355072"/>
</linearGradient>
</defs>
</svg>
