<svg width="438" height="77" viewBox="0 0 438 77" fill="none" xmlns="http://www.w3.org/2000/svg">
<path d="M430.686 57.4575C407.502 33.2025 368.423 44.0126 368.423 44.0126C368.423 44.0126 371.989 14.8085 308.629 3.12682C245.131 -8.55483 216.88 23.4044 216.88 23.4044C216.88 23.4044 191.92 8.74724 160.926 11.6126C129.794 14.4779 109.909 29.3554 118 38.1717C118 38.1717 101.954 24.6166 70.8229 30.788C39.6914 36.9595 40.24 46.3269 40.24 46.3269C40.24 46.3269 18.6727 41.8235 8.96708 49.2589C0.860691 55.4691 0.0571594 71.784 0.0571594 71.784L435.149 76.2589C435.149 76.2589 441.953 69.2458 430.686 57.4575Z" fill="url(#paint0_linear_2_21)"/>
<defs>
<linearGradient id="paint0_linear_2_21" x1="184.762" y1="99.6088" x2="125" y2="-9.00001" gradientUnits="userSpaceOnUse">
<stop stop-color="white"/>
<stop offset="1" stop-color="#9CB5A4"/>
</linearGradient>
</defs>
</svg>
