<svg width="776" height="159" viewBox="0 0 776 159" fill="none" xmlns="http://www.w3.org/2000/svg">
<path d="M4.35965 116.343C10.8457 127.02 44.3899 142.43 129.932 143.905C332.536 147.398 310.57 168.82 684.553 151.247C798.783 145.879 777.568 126.221 765.042 105.052C752.797 84.3584 666.091 51.492 666.091 51.492C666.091 51.492 675.087 30.3226 575.921 12.079C476.756 -6.16457 429.208 19.3075 429.208 19.3075C429.208 19.3075 390.227 -3.58293 341.822 0.891911C293.203 5.36675 262.147 28.6014 274.784 42.3702C274.784 42.3702 249.724 21.2007 201.105 30.8388C152.487 40.477 153.343 55.1063 153.343 55.1063C153.343 55.1063 95.0862 37.0692 69.8129 42.2325C44.5396 47.3957 28.9044 73.0056 28.9044 73.0056C28.9044 73.0056 -13.2368 87.3758 4.35965 116.343Z" fill="url(#paint0_linear_2_11)"/>
<defs>
<linearGradient id="paint0_linear_2_11" x1="312.886" y1="-12.9719" x2="427.949" y2="141.283" gradientUnits="userSpaceOnUse">
<stop stop-color="white"/>
<stop offset="1" stop-color="#9CB5A4"/>
</linearGradient>
</defs>
</svg>
