<svg width="353" height="130" viewBox="0 0 353 130" fill="none" xmlns="http://www.w3.org/2000/svg">
<path d="M0.907016 62.2428C8.78977 33.9788 13.9312 10.5837 85.2455 1.76742C156.56 -7.04891 173.017 47.5021 173.017 47.5021C173.017 47.5021 207.303 21.7144 236.788 32.4042C266.274 43.094 260.103 60.1756 260.103 60.1756C260.103 60.1756 299.188 46.1797 321.131 55.2164C345.131 65.1348 335.706 78.1354 335.706 78.1354C335.706 78.1354 369.672 99.4798 339.877 110.101C291.975 127.177 250.703 130.4 202.501 129.74C143.036 128.926 97.8688 100.256 97.8688 100.256C97.8688 100.256 57.0373 127.051 31.0444 113.67C14.2372 105.018 -3.85434 79.3149 0.907016 62.2428Z" fill="url(#paint0_linear_2_9)"/>
<defs>
<linearGradient id="paint0_linear_2_9" x1="347.944" y1="29.1896" x2="197.758" y2="132.824" gradientUnits="userSpaceOnUse">
<stop stop-color="white"/>
<stop offset="1" stop-color="#9CB5A4"/>
</linearGradient>
</defs>
</svg>
