<svg width="1940" height="874" viewBox="0 0 1940 874" fill="none" xmlns="http://www.w3.org/2000/svg">
<path d="M1777.22 25.7985C1733.89 -7.59338 1670.53 -7.37293 1627.46 26.4597L1546.55 90.2678C1506.64 121.676 1448.63 124.431 1405.43 96.9903C1366.34 72.0842 1314.5 71.7536 1275.01 96.2189L960.126 290.839H1930V143.607L1777.22 25.7985Z" fill="url(#paint0_linear_17_3)"/>
<path d="M1620.61 95.227C1638.3 74.5086 1658.87 72.8556 1707.28 55.9944C1755.42 39.1332 1726.62 3.53726 1726.21 3.09644C1692.06 -3.4056 1655.44 4.4189 1627.46 26.4597L1546.55 90.2678C1522.27 109.443 1491.14 117.929 1460.83 115.394C1500.61 129.28 1594.55 125.974 1620.61 95.227Z" fill="url(#paint1_linear_17_3)"/>
<path d="M1275.01 96.2189L1024.03 251.386L1028.7 290.839H1102.48C1188.06 274.198 1318.34 245.435 1312.86 224.607C1304.63 193.75 1306 171.709 1353.45 140.521C1400.77 109.333 1353.59 79.0271 1353.45 78.8067C1326.43 75.8312 1298.59 81.672 1275.01 96.2189Z" fill="url(#paint2_linear_17_3)"/>
<g filter="url(#filter0_d_17_3)">
<path d="M1649.68 194.3C1622.25 186.035 1592.77 185.374 1564.93 192.317L1427.23 226.59C1390.07 235.847 1350.3 231.439 1316.83 214.247L1095.39 94.1411C1053.42 72.5411 1000.74 60.5892 957.544 80.2055L596.697 205.321C555.554 223.945 506.731 223.835 465.726 204.99L364.651 158.484C322.137 138.978 271.394 139.529 229.429 160.137L10 267.696V328.198H1930V278.827L1649.68 194.3Z" fill="url(#paint3_linear_17_3)"/>
</g>
<path d="M185 317.641C115 317.641 10 307.641 10 307.641V873.5H1929V307.641C1929 307.641 1804 306.871 1748 317.641C1692 328.41 1486 317.641 1419 298.64C1352 279.64 1290 258.64 1223 298.641C1156 338.641 936 326.641 874 326.641C812 326.641 619 307.641 514 298.641C409 289.641 255 317.641 185 317.641Z" fill="url(#paint4_diamond_17_3)"/>
<g style="mix-blend-mode:luminosity" opacity="0.5" filter="url(#filter1_f_17_3)">
<path d="M498 461C498 474.261 490.046 486.979 475.887 496.355C461.728 505.732 442.524 511 422.5 511C402.476 511 383.272 505.732 369.113 496.355C354.954 486.979 347 474.261 347 461C347 451.111 351.428 441.444 359.724 433.222C368.02 424.999 379.812 418.59 393.607 414.806C407.403 411.022 422.584 410.031 437.229 411.961C451.875 413.89 465.328 418.652 475.887 425.645C486.445 432.637 493.636 441.546 496.549 451.245C499.462 460.945 497.967 470.998 492.253 480.134C486.538 489.27 476.861 497.079 464.445 502.573C452.03 508.068 437.432 511 422.5 511V411C442.524 411 461.728 416.268 475.887 425.645C490.046 435.021 498 447.739 498 461Z" fill="#F9CB4E"/>
<path d="M498 461.664C498 474.396 491.318 486.608 479.425 495.611C467.531 504.614 451.4 509.673 434.58 509.673C417.76 509.673 401.629 504.614 389.735 495.611C377.842 486.608 371.16 474.396 371.16 461.664C371.16 452.168 374.88 442.886 381.848 434.991C388.817 427.096 398.722 420.943 410.31 417.309C421.899 413.676 434.65 412.725 446.953 414.577C459.255 416.43 470.555 421.002 479.425 427.716C488.294 434.43 494.334 442.985 496.781 452.298C499.228 461.61 497.973 471.263 493.172 480.036C488.372 488.808 480.244 496.306 469.814 501.582C459.385 506.857 447.123 509.673 434.58 509.673C422.037 509.673 409.775 506.857 399.346 501.582C388.916 496.306 380.788 488.808 375.988 480.036C371.187 471.263 369.932 461.61 372.379 452.298C374.826 442.985 380.866 434.43 389.735 427.716C398.605 421.002 409.905 416.43 422.207 414.577C434.51 412.725 447.261 413.676 458.85 417.309C470.438 420.943 480.343 427.096 487.312 434.991C494.28 442.886 498 452.168 498 461.664Z" fill="#FAD775"/>
<g opacity="0.37">
<path opacity="0.37" d="M392.117 450.898C392.117 453.003 391.026 455.022 389.085 456.51C387.144 457.999 384.511 458.835 381.766 458.835C379.02 458.835 376.387 457.999 374.446 456.51C372.505 455.022 371.414 453.003 371.414 450.898C371.414 449.328 372.021 447.793 373.159 446.488C374.296 445.182 375.913 444.165 377.804 443.564C379.696 442.963 381.777 442.806 383.785 443.113C385.793 443.419 387.637 444.175 389.085 445.285C390.533 446.395 391.519 447.809 391.918 449.349C392.317 450.889 392.112 452.485 391.329 453.935C390.545 455.385 389.219 456.625 387.516 457.497C385.814 458.37 383.813 458.835 381.766 458.835V442.96C384.511 442.96 387.144 443.796 389.085 445.285C391.026 446.773 392.117 448.792 392.117 450.898Z" fill="#ED6349"/>
<path opacity="0.37" d="M456.95 435.383C456.95 437.68 455.17 439.882 452.003 441.506C448.835 443.13 444.54 444.042 440.06 444.042C435.581 444.042 431.285 443.13 428.118 441.506C424.95 439.882 423.171 437.68 423.171 435.383C423.171 434.246 423.608 433.12 424.457 432.069C425.305 431.019 426.549 430.064 428.118 429.26C429.686 428.456 431.548 427.818 433.597 427.383C435.646 426.948 437.842 426.724 440.06 426.724V444.042C436.72 444.042 433.455 443.534 430.677 442.583C427.9 441.632 425.735 440.279 424.457 438.697C423.178 437.115 422.844 435.374 423.496 433.694C424.147 432.014 425.756 430.471 428.118 429.26C430.48 428.049 433.489 427.224 436.765 426.89C440.042 426.556 443.437 426.728 446.524 427.383C449.61 428.039 452.247 429.148 454.103 430.572C455.959 431.996 456.95 433.671 456.95 435.383Z" fill="#ED6349"/>
<path opacity="0.37" d="M443.329 477.958C443.329 479.584 442.612 481.145 441.335 482.295C440.057 483.445 438.325 484.091 436.519 484.091C434.713 484.091 432.981 483.445 431.704 482.295C430.427 481.145 429.709 479.584 429.709 477.958C429.709 476.745 430.108 475.559 430.857 474.55C431.605 473.541 432.669 472.755 433.913 472.291C435.157 471.827 436.527 471.705 437.848 471.942C439.169 472.179 440.382 472.763 441.335 473.621C442.287 474.478 442.936 475.571 443.198 476.761C443.461 477.951 443.326 479.184 442.811 480.305C442.295 481.426 441.422 482.384 440.303 483.058C439.183 483.732 437.866 484.091 436.519 484.091C435.172 484.091 433.856 483.732 432.736 483.058C431.616 482.384 430.743 481.426 430.227 480.305C429.712 479.184 429.577 477.951 429.84 476.761C430.103 475.571 430.751 474.478 431.704 473.621C432.656 472.763 433.87 472.179 435.191 471.942C436.512 471.705 437.881 471.827 439.125 472.291C440.37 472.755 441.433 473.541 442.181 474.55C442.93 475.559 443.329 476.745 443.329 477.958Z" fill="#ED6349"/>
<path opacity="0.37" d="M407.372 488.421C407.372 490.143 406.224 491.795 404.18 493.013C402.137 494.231 399.365 494.915 396.475 494.915C393.585 494.915 390.814 494.231 388.771 493.013C386.727 491.795 385.579 490.143 385.579 488.421C385.579 487.136 386.218 485.881 387.415 484.813C388.613 483.745 390.315 482.912 392.306 482.421C394.297 481.929 396.487 481.801 398.601 482.051C400.715 482.302 402.656 482.92 404.18 483.829C405.704 484.737 406.742 485.894 407.162 487.154C407.583 488.414 407.367 489.72 406.542 490.906C405.717 492.093 404.321 493.107 402.529 493.821C400.737 494.534 398.63 494.915 396.475 494.915C394.32 494.915 392.214 494.534 390.422 493.821C388.63 493.107 387.233 492.093 386.409 490.906C385.584 489.72 385.368 488.414 385.788 487.154C386.209 485.894 387.247 484.737 388.771 483.829C390.294 482.92 392.236 482.302 394.35 482.051C396.463 481.801 398.654 481.929 400.645 482.421C402.636 482.912 404.338 483.745 405.535 484.813C406.733 485.881 407.372 487.136 407.372 488.421Z" fill="#ED6349"/>
<path opacity="0.37" d="M423.171 460.098C423.171 460.816 422.741 461.504 421.975 462.011C421.208 462.519 420.169 462.804 419.085 462.804C418.002 462.804 416.962 462.519 416.196 462.011C415.43 461.504 414.999 460.816 414.999 460.098C414.999 459.563 415.239 459.04 415.688 458.595C416.137 458.149 416.775 457.803 417.522 457.598C418.268 457.393 419.09 457.339 419.882 457.444C420.675 457.548 421.403 457.806 421.975 458.184C422.546 458.563 422.935 459.045 423.093 459.57C423.251 460.095 423.17 460.639 422.86 461.134C422.551 461.628 422.027 462.051 421.355 462.348C420.683 462.645 419.893 462.804 419.085 462.804C418.277 462.804 417.487 462.645 416.815 462.348C416.143 462.051 415.619 461.628 415.31 461.134C415.001 460.639 414.92 460.095 415.078 459.57C415.235 459.045 415.624 458.563 416.196 458.184C416.767 457.806 417.495 457.548 418.288 457.444C419.081 457.339 419.902 457.393 420.649 457.598C421.396 457.803 422.034 458.149 422.483 458.595C422.932 459.04 423.171 459.563 423.171 460.098Z" fill="#ED6349"/>
<path opacity="0.37" d="M496.72 470.381C496.72 472.39 495.974 474.318 494.646 475.738C493.318 477.159 491.516 477.958 489.638 477.958C487.76 477.958 485.958 477.159 484.63 475.738C483.302 474.318 482.556 472.39 482.556 470.381C482.556 468.882 482.971 467.417 483.749 466.171C484.527 464.925 485.634 463.954 486.928 463.381C488.222 462.807 489.646 462.657 491.02 462.95C492.394 463.242 493.656 463.964 494.646 465.023C495.637 466.083 496.311 467.433 496.584 468.903C496.858 470.372 496.717 471.896 496.181 473.28C495.645 474.665 494.738 475.848 493.573 476.681C492.408 477.513 491.039 477.958 489.638 477.958C488.237 477.958 486.868 477.513 485.703 476.681C484.539 475.848 483.631 474.665 483.095 473.28C482.559 471.896 482.418 470.372 482.692 468.903C482.965 467.433 483.64 466.083 484.63 465.023C485.621 463.964 486.883 463.242 488.256 462.95C489.63 462.657 491.054 462.807 492.348 463.381C493.642 463.954 494.749 464.925 495.527 466.171C496.305 467.417 496.72 468.882 496.72 470.381Z" fill="#ED6349"/>
<path opacity="0.37" d="M461.308 492.931C461.308 495.275 459.729 497.524 456.92 499.181C454.11 500.839 450.299 501.771 446.326 501.771C444.358 501.771 442.41 501.542 440.592 501.098C438.775 500.653 437.123 500.002 435.732 499.181C434.34 498.361 433.237 497.386 432.484 496.314C431.731 495.241 431.344 494.092 431.344 492.931C431.344 491.77 431.731 490.621 432.484 489.548C433.237 488.476 434.34 487.501 435.732 486.68C437.123 485.86 438.775 485.208 440.592 484.764C442.41 484.32 444.358 484.091 446.326 484.091C448.293 484.091 450.241 484.32 452.059 484.764C453.877 485.208 455.528 485.86 456.92 486.68C458.311 487.501 459.414 488.476 460.167 489.548C460.92 490.621 461.308 491.77 461.308 492.931Z" fill="#ED6349"/>
<path opacity="0.37" d="M471.659 451.258C471.659 452.12 471.286 452.946 470.622 453.555C469.958 454.164 469.057 454.506 468.118 454.506C467.179 454.506 466.278 454.164 465.614 453.555C464.95 452.946 464.577 452.12 464.577 451.258C464.577 450.616 464.784 449.988 465.174 449.454C465.563 448.92 466.116 448.504 466.763 448.258C467.41 448.013 468.122 447.948 468.809 448.074C469.496 448.199 470.127 448.508 470.622 448.962C471.117 449.416 471.454 449.995 471.591 450.625C471.728 451.255 471.658 451.908 471.39 452.501C471.122 453.094 470.668 453.602 470.085 453.958C469.503 454.315 468.818 454.506 468.118 454.506C467.418 454.506 466.733 454.315 466.151 453.958C465.568 453.602 465.114 453.094 464.846 452.501C464.578 451.908 464.508 451.255 464.645 450.625C464.781 449.995 465.119 449.416 465.614 448.962C466.109 448.508 466.74 448.199 467.427 448.074C468.114 447.948 468.826 448.013 469.473 448.258C470.12 448.504 470.673 448.92 471.062 449.454C471.451 449.988 471.659 450.616 471.659 451.258Z" fill="#ED6349"/>
</g>
</g>
<g style="mix-blend-mode:darken" filter="url(#filter2_f_17_3)">
<mask id="mask0_17_3" style="mask-type:alpha" maskUnits="userSpaceOnUse" x="10" y="275" width="1920" height="293">
<path d="M185.091 317.692C115.055 317.692 10 307.68 10 307.68V568H1930V307.68C1930 307.68 1804.93 306.909 1748.91 317.692C1692.88 328.474 1486.77 317.692 1419.73 298.669C1352.7 279.645 1290.67 258.619 1223.63 298.669C1156.6 338.718 936.482 326.703 874.45 326.703C812.418 326.703 619.317 307.68 514.263 298.669C409.208 289.657 255.128 317.692 185.091 317.692Z" fill="black" fill-opacity="0.42"/>
</mask>
<g mask="url(#mask0_17_3)">
<g style="mix-blend-mode:darken">
<path d="M1650.53 371.277C1623.09 377.18 1593.59 377.653 1565.74 372.694L1427.97 348.214C1390.79 341.602 1351 344.75 1317.52 357.03L1095.95 442.816C1053.97 458.244 1001.26 466.78 958.037 452.769L597.003 363.405C555.839 350.103 506.99 350.182 465.963 363.642L364.836 396.859C322.3 410.791 271.53 410.397 229.543 395.678L10 318.854V275.64H1931V310.904L1650.53 371.277Z" fill="black" fill-opacity="0.42"/>
</g>
</g>
</g>
<defs>
<filter id="filter0_d_17_3" x="6" y="70.2686" width="1928" height="265.93" filterUnits="userSpaceOnUse" color-interpolation-filters="sRGB">
<feFlood flood-opacity="0" result="BackgroundImageFix"/>
<feColorMatrix in="SourceAlpha" type="matrix" values="0 0 0 0 0 0 0 0 0 0 0 0 0 0 0 0 0 0 127 0" result="hardAlpha"/>
<feOffset dy="4"/>
<feGaussianBlur stdDeviation="2"/>
<feComposite in2="hardAlpha" operator="out"/>
<feColorMatrix type="matrix" values="0 0 0 0 0 0 0 0 0 0 0 0 0 0 0 0 0 0 0.25 0"/>
<feBlend mode="normal" in2="BackgroundImageFix" result="effect1_dropShadow_17_3"/>
<feBlend mode="normal" in="SourceGraphic" in2="effect1_dropShadow_17_3" result="shape"/>
</filter>
<filter id="filter1_f_17_3" x="343" y="407" width="159" height="108" filterUnits="userSpaceOnUse" color-interpolation-filters="sRGB">
<feFlood flood-opacity="0" result="BackgroundImageFix"/>
<feBlend mode="normal" in="SourceGraphic" in2="BackgroundImageFix" result="shape"/>
<feGaussianBlur stdDeviation="2" result="effect1_foregroundBlur_17_3"/>
</filter>
<filter id="filter2_f_17_3" x="0" y="265.854" width="1940" height="204.013" filterUnits="userSpaceOnUse" color-interpolation-filters="sRGB">
<feFlood flood-opacity="0" result="BackgroundImageFix"/>
<feBlend mode="normal" in="SourceGraphic" in2="BackgroundImageFix" result="shape"/>
<feGaussianBlur stdDeviation="5" result="effect1_foregroundBlur_17_3"/>
</filter>
<linearGradient id="paint0_linear_17_3" x1="1390.69" y1="47.3966" x2="1431.55" y2="244.898" gradientUnits="userSpaceOnUse">
<stop stop-color="#637164"/>
<stop offset="1" stop-color="#29395E"/>
</linearGradient>
<linearGradient id="paint1_linear_17_3" x1="1589.26" y1="42.503" x2="1608.02" y2="128.352" gradientUnits="userSpaceOnUse">
<stop stop-color="#637164"/>
<stop offset="1" stop-color="#355072"/>
</linearGradient>
<linearGradient id="paint2_linear_17_3" x1="1188.78" y1="142.907" x2="1206.6" y2="263.869" gradientUnits="userSpaceOnUse">
<stop stop-color="#637164"/>
<stop offset="1" stop-color="#355072"/>
</linearGradient>
<linearGradient id="paint3_linear_17_3" x1="965.167" y1="-12.9913" x2="967.824" y2="256.458" gradientUnits="userSpaceOnUse">
<stop stop-color="#637164"/>
<stop offset="0.8837" stop-color="#2778A0"/>
</linearGradient>
<radialGradient id="paint4_diamond_17_3" cx="0" cy="0" r="1" gradientUnits="userSpaceOnUse" gradientTransform="translate(970 284.64) rotate(80.5692) scale(299.042 2577.86)">
<stop stop-color="#292769"/>
<stop offset="1" stop-color="#171467"/>
</radialGradient>
</defs>
</svg>
