<svg width="1920" height="1080" viewBox="0 0 1920 1080" fill="none" xmlns="http://www.w3.org/2000/svg">
<g clip-path="url(#clip0_4_206)">
<rect width="1920" height="1080" fill="#171467"/>
<path opacity="0.59" d="M1284.93 846.713C1284.86 869.638 1292.58 891.572 1306.99 909.398C1311.98 915.706 1306 925.168 1296.4 925.977C1286.93 926.741 1277.59 926.64 1268.45 925.883C1259.28 925.021 1251.33 933.426 1255.06 940.293C1257.98 945.692 1264.37 950.219 1271.79 950.645C1286.5 951.543 1301.16 944.046 1315.9 940.494C1330.64 936.941 1349.76 940.028 1351.03 952.315C1344.13 967.828 1319.92 970.506 1301.17 974.651C1292.82 976.539 1284.04 981.733 1278.13 987.668C1269.76 996.105 1278.58 1007.14 1290.39 1003.1C1307.15 997.431 1324.39 993.117 1341.79 990.499C1351.3 989.021 1355.68 998.578 1348.09 1004.29C1335.34 1013.91 1318.62 1019.68 1302.8 1018.94C1279.43 1017.82 1260.36 1002.45 1258 982.951C1254.72 975.694 1239.14 981.41 1236.75 989.494C1234.37 997.579 1239.58 1004.97 1243.22 1011.99C1246.89 1019.11 1248.29 1028.89 1240.78 1034.81C1232.03 1041.75 1220.24 1037.6 1208.81 1035.66C1199.38 1034.08 1189.88 1042.21 1192.24 1050.14L1192.31 1050.35C1193.35 1053.72 1197.04 1055.93 1201.43 1055.2C1209.02 1054.05 1219.28 1061.3 1218.15 1069.65C1216.65 1080.69 1180.46 1106.39 1208.74 1102.4C1327.83 1058.23 1430.93 1015.2 1558.01 973.513C1656.45 941.323 1677.95 955.056 1754.7 890.546C1831.44 826.035 1841.99 806.817 1934.26 709.678C1930.62 698.925 1956.87 644.197 1954.7 633.048C1924.93 622.348 1945.17 565.869 1924.71 547.836C1917.1 526.213 1913.38 533.596 1914.13 551.56C1914.71 565.608 1921.22 571.884 1927.73 584.196C1924.91 598.118 1912.77 572.133 1907.22 556.793C1901.68 541.453 1879.75 541.163 1870.18 527.592C1860.6 514.021 1862.54 505.897 1844.73 507.286C1834.46 521.884 1850.52 536.558 1865.88 544.24C1874.35 548.499 1883.75 553.721 1889.53 560.217C1895.54 566.979 1887.22 577.619 1876.89 576.348C1861.39 574.443 1845.48 573.032 1829.62 572.186C1821.48 571.779 1813.95 578.052 1814.5 584.985C1814.85 590.119 1819.6 593.704 1825.79 593.513L1889.02 591.822C1898.08 591.553 1904.32 598.12 1902.04 605.698C1897.51 620.495 1874.26 634.986 1855.4 631.809C1830.35 627.541 1808.62 609.019 1802.45 588.176C1797.65 571.64 1803.7 550.582 1794.68 536.115C1789.05 520.1 1778.83 525.688 1778.37 531.809C1778.14 534.46 1781.12 545.093 1781.71 547.575C1783.53 555.229 1776.54 568.023 1770.19 562.782C1765.86 559.164 1756.57 554.904 1756.05 549.712C1754.93 537.022 1756.67 532.621 1753.02 520.588C1751.3 514.884 1754.59 508.375 1748.66 501.608C1739.68 491.359 1739.85 491.831 1734.97 511.037L1735.85 524.691C1738.93 532.605 1734.02 554.078 1725.07 550.566C1716.17 547.157 1702.25 526.704 1696.27 520.045C1691.05 514.29 1683.81 512.334 1675.38 510.277C1665.07 507.831 1655.03 516.453 1662.87 522.22L1684.86 547.756C1691.69 552.712 1696.75 559.832 1687.18 562.382L1654.25 567.54C1646.53 569.557 1641.29 580.168 1643.28 586.243L1647.51 591.766C1659.38 598.221 1679.49 588.869 1687.58 577.548C1699.57 568.655 1712.61 570.193 1713.92 582.584C1696.86 595.248 1689.6 602.304 1669.03 609.543C1648.56 616.633 1624.1 616.946 1609.81 605.268C1602.89 599.643 1591.04 592.012 1585.07 599.837C1582.71 623.685 1617.86 634.33 1645.79 627.771C1673.72 621.212 1700.03 607.161 1727.68 598.952C1740.7 595.068 1752.13 591.61 1761.54 599.749C1767.03 604.594 1769.45 611.473 1763.87 617.524C1755.78 626.331 1741.16 624.465 1729.01 625.469C1716.99 626.429 1702.72 641.729 1710.73 648.374C1737.68 648.937 1764.75 642.734 1787.65 627.665C1796.95 634.673 1799.33 640.209 1799.09 651.509C1798.86 662.809 1793.12 669.5 1779.93 668.77C1767.02 668.053 1757.12 661.14 1747.47 655.191C1741.2 651.437 1732.58 659.147 1737.38 664.116L1743.98 670.904C1749.06 676.244 1743.03 685.141 1734.47 684.767C1718.98 684.142 1704.59 678.344 1695.83 668.34C1686.8 657.966 1683.97 648.327 1687.89 634.68C1689.83 627.805 1684.33 620.851 1676.31 622.855C1669.23 624.644 1662.69 631.17 1665.27 636.452C1669.25 644.866 1672.13 650.979 1665.8 660.683C1660.78 668.294 1649.95 672.222 1641.72 668.69C1632.47 664.703 1632.46 657.23 1629.83 648.927C1627.3 640.935 1614.53 635.035 1609.18 642.99C1598.74 654.611 1609.13 671.398 1623.83 675.571C1638.57 679.848 1654.98 678.19 1670.63 680.511C1680.44 681.963 1688.01 682.308 1692.72 689.064C1696.52 694.501 1708.34 700.172 1701.31 704.164C1695.86 707.252 1684.63 715.72 1681.57 720.653C1676.32 729.278 1689.3 736.937 1698.58 731.099C1730.34 711.042 1754.7 698.093 1792.01 692.557C1804.16 690.734 1811.49 698.304 1804.02 707.241C1796.65 716.029 1788.5 721.365 1776.41 725.034C1761.74 729.613 1746.27 734.004 1732.81 740.377C1716.74 747.988 1718.58 756.951 1727.51 758.365C1733.51 759.292 1740.29 758.893 1746.53 757.63C1752.52 756.459 1754.93 764.138 1749.97 767.402C1731.19 779.735 1711.21 782.562 1698.44 768.595C1693.66 763.269 1680.71 751.704 1680.19 758.897C1680.01 762.114 1678.15 775.503 1679.23 778.979C1681.63 786.197 1669.82 795.027 1661.65 792.06C1648.93 787.308 1635.83 779.404 1634.74 766.818C1633.44 751.97 1641.87 732.779 1649.98 718.241C1654.9 709.5 1644.83 698.526 1637.85 706.358C1635.01 709.458 1631.71 715.436 1630.62 718.971C1629.28 723.416 1628.7 730.169 1627.76 734.939C1626.26 742.243 1614.26 744.514 1612.27 737.62C1606.34 717.043 1592.54 706.444 1576.96 691.484C1571.69 686.443 1562.31 689.277 1562.81 696.464C1564.95 724.449 1573.82 743.524 1597.69 760.944C1583.3 768.811 1571.18 768.148 1555.1 772.053C1539.03 775.957 1527.75 794.147 1543.94 793.473C1556.94 787.029 1572 785.394 1586.16 783.914C1600.36 782.539 1614.43 785.31 1617.54 796.602C1608.96 806.514 1593.56 816.022 1578.02 821.024C1570.83 823.32 1562.41 827.102 1562.96 833.216C1563.44 838.304 1569.42 841.226 1575.44 839.34C1593.38 833.726 1609.05 828.698 1623.41 817.452C1628.89 813.187 1636.23 815.631 1634.39 821.539C1628.31 840.618 1606.77 851.114 1583.65 853.175C1558.58 855.458 1539.81 848.492 1537.62 828.232C1537.01 823.19 1525.44 817.917 1523.59 823.005C1521.13 830.063 1522.11 838.248 1525.94 846.246C1528.45 851.32 1524.11 861.494 1517.91 859.585L1486.8 849.505C1477.4 846.74 1467.94 850.771 1469.07 859.367C1469.9 865.033 1473.07 866.957 1478.58 869.808C1490.52 875.652 1501.99 874.832 1516.52 875.211C1523.28 875.404 1530.16 877.632 1536.21 879.944C1545.45 883.469 1545.44 896.629 1534.95 899.855C1504.53 909.274 1474.62 915.711 1443.48 917.677C1435.2 918.134 1427.98 925.583 1432.25 931.092C1438.31 939.238 1451.03 939.903 1463.86 937.956C1478.53 935.833 1492.5 932.086 1504.63 923.608C1511.76 918.648 1521.25 922.901 1519.29 930.134C1518.34 933.624 1516.37 937.12 1513.59 939.967C1506.42 947.28 1494.3 948.526 1484.28 952.286C1449.4 965.143 1402.8 977.555 1388.34 951.334C1373.46 924.327 1411.83 880.915 1386.45 860.871C1379.27 854.519 1364.29 863.997 1362.25 873.479C1360.21 882.96 1364.66 891.906 1363.64 901.38C1363.62 901.738 1363.6 902.095 1363.41 902.394C1361.1 914.422 1341.03 917.281 1337.28 906.217C1329.18 881.963 1321.11 857.813 1312.89 833.604C1309.8 824.411 1294.38 824.812 1288.96 834.197C1286.46 838.233 1285.02 842.828 1284.93 846.713Z" fill="#010B1C"/>
<path opacity="0.59" d="M718.246 865.737C725.926 887.337 725.926 910.59 718.246 932.19C715.64 939.794 724.417 946.737 733.743 944.313C742.931 941.888 751.709 938.692 760.074 934.945C768.44 931.088 778.726 936.378 777.491 944.092C776.531 950.153 772.006 956.545 765.148 959.411C751.571 965.141 735.251 962.937 720.166 964.48C705.08 966.023 688.074 975.28 690.954 987.292C702.611 999.635 726.337 994.125 745.4 991.81C753.903 990.819 763.914 992.802 771.457 996.439C782.154 1001.62 777.491 1014.95 765.011 1015.06C747.32 1015.28 729.629 1016.94 712.349 1020.24C702.886 1022.01 701.926 1032.48 710.977 1035.34C726.2 1040.19 743.891 1040.08 758.566 1034.13C780.234 1025.31 793.126 1004.48 788.874 985.309C789.56 977.374 806.154 977.594 811.091 984.427C816.029 991.259 813.56 999.966 812.463 1007.79C811.366 1015.72 813.286 1025.42 822.337 1028.51C832.897 1032.15 842.634 1024.32 852.783 1018.7C861.149 1014.07 872.806 1018.59 873.217 1026.86V1027.08C873.354 1030.6 870.611 1033.91 866.223 1034.68C858.68 1036.11 851.411 1046.36 855.251 1053.86C860.326 1063.77 903 1076 875 1081.63C748 1079.5 636.466 1073.13 502.751 1076C399.208 1078.31 383.48 1098.41 289.674 1063.03C195.868 1027.66 179.534 1013.03 60.2513 952.033C60.1142 940.682 17.18 897.774 15.5343 886.533C40.0629 866.557 2.22279 820 15.5343 796.198C15.5343 773.276 21.4905 779.006 26.7514 796.198C30.8656 809.643 26.8085 817.725 24.7513 831.5C32.0343 843.696 34.8628 815.153 34.9999 798.843C35.1371 782.533 55.7256 774.98 60.2514 759C64.7771 743.021 60.2513 736 77.5142 731.398C92.0513 741.757 81.7657 760.933 69.8342 773.276C63.2514 780.108 56.1199 788.153 52.8285 796.198C49.3999 804.574 60.7828 811.847 70.1085 807.219C84.0971 800.276 98.6342 793.664 113.308 787.602C120.851 784.517 130.04 787.933 131.823 794.655C133.194 799.615 129.903 804.574 124.006 806.447L63.7999 825.843C55.1599 828.598 51.4571 836.864 56.1199 843.255C65.3085 855.708 92.0513 861.659 108.783 852.402C131 840.059 145.349 815.374 144.251 793.664C143.291 776.472 130.589 758.619 134.291 741.978C134.291 725 145.783 726.88 148.251 732.5C149.349 734.925 150.063 745.945 150.337 748.48C151.16 756.304 162 766.053 166.251 759C169.131 754.151 176.486 747.047 175.251 741.978C172.097 729.635 168.989 726.063 168.44 713.5C168.166 707.549 162.905 702.5 166.251 694.149C171.32 681.5 171.32 682 182.291 698.5L185.994 711.672C185.72 720.157 197.483 738.782 204.751 732.5C212.02 726.329 218.36 702.415 221.789 694.149C224.806 686.986 230.983 682.739 238.251 678C247.166 672.27 259.503 677.068 254.017 685.112L241.751 716.5C236.951 723.443 234.543 731.839 244.417 731.068L277.194 725C285.148 724.339 293.614 732.608 293.751 739L291.594 745.615C282.543 755.643 260.463 753.5 249.08 745.504C234.817 741.096 223.023 746.878 225.903 759C246.2 765.282 255.388 769.529 277.194 769.529C298.863 769.419 322.04 761.594 331.64 745.835C336.303 738.231 344.943 727.1 353.171 732.5C363.32 754.21 333.697 775.921 305.171 779.006C276.646 782.092 247.16 777.574 218.36 779.006C204.783 779.668 192.851 780.2 186.68 791C183.114 797.392 183.114 804.684 190.383 808.541C200.943 814.161 214.109 807.549 225.903 804.464C237.56 801.378 256.1 811.074 250.751 820C225.517 829.478 197.926 832.612 171.32 826C164.874 835.698 164.463 841.713 168.44 852.292C172.417 862.872 180.046 867.28 192.251 862.21C204.183 857.251 211.229 847.443 218.36 838.627C223.023 833.006 233.72 837.415 230.84 843.696L226.863 852.292C223.846 859.015 232.486 865.406 240.44 862.21C254.84 856.48 266.497 846.231 271.434 833.888C276.508 821.104 275.98 811.072 267.751 799.5C263.637 793.659 266.523 785.272 274.751 784.5C282.02 783.839 290.36 787.823 289.674 793.664C288.714 802.921 288.028 809.643 297.217 816.696C304.486 822.206 316.006 822.317 322.588 816.255C329.994 809.423 327.526 802.37 327.251 793.664C326.977 785.288 337.071 775.48 344.751 781.21C358.466 788.704 354.231 807.99 341.751 816.806C329.271 825.733 313.24 829.616 299.251 837C290.474 841.629 283.446 844.468 281.251 852.402C279.468 858.794 270.2 868.068 278.154 869.5C284.326 870.602 297.726 874.863 302.251 878.5C310.068 884.892 300.371 896.425 289.674 894C253.057 885.625 225.78 881.496 188.751 888.659C176.683 890.974 172.28 900.549 182.291 906.5C192.166 912.341 201.629 914.668 214.246 914.117C229.606 913.566 245.651 912.574 260.463 914.117C278.154 915.959 279.388 925.027 271.434 929.325C266.086 932.19 259.56 934.064 253.251 934.945C247.217 935.827 247.491 943.872 253.251 945.304C275.057 950.704 294.846 946.737 302.251 929.325C304.994 922.712 313.371 907.504 316.251 914.117C317.486 917.092 323.686 929.104 323.823 932.741C323.96 940.345 338.031 944.753 344.751 939.243C355.174 930.537 364.906 918.733 361.751 906.5C358.048 892.063 343.731 876.757 331.251 865.737C323.708 859.125 329.563 845.431 338.751 850.5C342.454 852.484 347.557 857.025 349.751 860C352.494 863.747 355.283 869.925 357.751 874.113C361.591 880.504 373.663 878.663 373.251 871.5C372.017 850.121 381.514 835.541 391.251 816.255C394.543 809.753 404.331 809.312 406.251 816.255C413.52 843.366 411.483 864.304 394.751 888.659C410.934 891.304 422.154 886.653 438.611 885C455.068 883.347 471.748 896.761 456.251 901.5C441.851 899.737 427.103 903.194 413.251 906.5C399.4 909.916 387.046 917.202 387.868 928.884C399.251 935.386 416.931 939.243 433.251 938.802C440.794 938.582 449.994 939.353 451.503 945.304C452.737 950.264 448.074 955.002 441.766 955.223C422.977 955.884 406.531 956.341 389.251 950.5C382.668 948.296 376.548 953.041 380.251 958C392.32 973.98 416.12 976.731 438.611 971C463.023 964.829 478.414 952.027 473.751 932.19C472.654 927.231 481.823 918.415 485.251 922.602C489.914 928.443 491.711 936.488 490.751 945.304C490.066 950.925 497.54 959.08 502.751 955.223L528.751 935.386C536.706 929.655 546.969 930.317 548.751 938.802C549.849 944.423 547.503 947.288 543.251 951.806C533.926 961.284 522.828 964.321 509.251 969.5C502.943 971.925 497.188 976.312 492.251 980.5C484.708 986.892 489.08 999.304 500.051 998.864C531.868 997.651 562.217 993.794 592.251 985.309C600.206 982.994 609.491 987.623 607.297 994.235C604.28 1003.93 592.506 1008.78 579.751 1011.21C565.214 1014.07 550.794 1015.17 536.531 1011.21C528.166 1008.89 520.623 1016.06 524.874 1022.23C526.931 1025.2 529.949 1027.85 533.514 1029.61C542.703 1034.13 554.554 1031.28 565.251 1031.5C602.417 1032.05 650.497 1028.29 655.434 998.753C660.508 968.337 609.903 940.125 627.183 912.794C631.846 904.419 649.126 908.386 654.2 916.651C659.274 924.917 658.04 934.835 662.154 943.431C662.291 943.762 662.429 944.092 662.703 944.313C668.874 954.892 688.76 950.925 688.623 939.243C688.211 913.676 687.8 888.219 687.526 862.651C687.389 852.953 702.063 848.215 710.291 855.268C713.994 858.243 716.874 862.1 718.246 865.737Z" fill="#010B1C"/>
<path d="M1948.8 575.045C1937.14 577.249 1941.67 584.632 1934.13 577.138C1929.05 572.069 1923.98 567.11 1918.9 562.041L1923.02 584.963C1922.61 584.963 1922.06 585.073 1921.65 585.073C1915.34 585.404 1913.42 592.236 1919.18 594.441C1919.31 594.441 1919.31 594.551 1919.45 594.551C1919.59 594.551 1919.45 594.661 1919.45 594.661C1913.28 594.771 1907.25 594.771 1901.07 594.881C1891.75 594.992 1889.97 605.681 1899.02 607.555C1899.15 607.555 1899.15 607.555 1899.29 607.555C1894.22 608.987 1889.14 610.31 1884.07 611.743C1881.05 612.624 1878.72 614.938 1878.86 617.473C1878.86 617.914 1878.86 618.245 1878.58 618.685C1876.53 622.873 1869.94 624.196 1865.42 626.951C1858.29 631.359 1857.05 638.963 1857.6 646.567C1857.87 650.645 1854.45 654.281 1849.51 655.053L1847.31 655.383C1841.14 656.375 1837.58 661.555 1839.91 666.294L1840.05 666.514C1842.24 670.812 1839.36 675.551 1834.01 677.094C1822.9 680.179 1814.4 690.538 1818.24 699.906C1797.67 705.306 1787.38 723.049 1776.41 737.926C1756.66 764.596 1727.73 786.857 1693.71 801.734C1684.53 805.812 1673.14 805.041 1664.91 799.751C1658.61 795.673 1651.47 792.477 1643.93 790.053L1630.63 806.583C1630.22 801.624 1621.17 801.404 1615.27 802.947C1595.25 808.347 1576.59 817.163 1560.82 828.514C1547.79 853.089 1530.93 876.343 1510.63 897.502C1505.55 897.392 1499.11 898.934 1496.37 901.579C1496.78 895.298 1486.22 892.983 1482.38 898.383C1481.83 899.265 1481.14 900.147 1480.59 900.918C1479.09 903.122 1476.62 904.775 1473.74 905.657C1473.05 905.877 1472.37 905.987 1471.82 905.987C1466.06 906.538 1460.85 908.853 1456.73 912.159C1441.1 924.722 1425.46 937.396 1409.97 949.959C1413.39 939.159 1418.47 928.69 1423.41 918.22C1417.23 929.681 1410.24 940.812 1402.29 951.502C1407.5 938.057 1411.34 924.281 1413.53 910.396C1410.93 923.289 1406.26 935.963 1399.82 947.975C1398.17 939.49 1398.45 930.673 1400.78 922.187C1397.21 930.563 1394.19 939.049 1391.45 947.534C1391.18 947.534 1391.31 947.534 1391.04 947.534C1391.18 935.081 1391.18 922.628 1391.31 910.175C1389.67 922.077 1389.26 933.979 1389.94 945.992C1389.94 946.102 1390.08 946.212 1390.08 946.432C1390.08 946.322 1389.94 946.322 1389.94 946.212C1389.94 946.102 1389.94 946.102 1389.94 945.992C1386.1 935.632 1383.5 924.943 1382.13 914.253C1382.67 921.636 1383.36 929.02 1383.91 936.514C1378.97 926.485 1377.05 915.465 1378.83 904.665C1377.05 907.971 1375.82 911.498 1375.41 915.134C1374.99 913.151 1374.58 911.167 1374.31 909.073C1374.72 911.277 1374.99 913.481 1375.41 915.685C1374.45 923.841 1376.64 932.326 1381.71 939.49C1382.54 940.702 1383.5 941.804 1384.46 942.906C1384.46 943.567 1384.59 944.118 1384.59 944.779L1382.95 943.787C1382.54 942.575 1382.13 941.253 1381.71 940.04C1381.3 940.371 1381.03 940.592 1380.75 940.702C1380.75 940.702 1380.75 940.702 1380.89 940.592C1380.75 940.702 1380.34 940.922 1379.52 941.583L1373.07 937.616C1368 928.8 1364.02 919.543 1361.01 910.065C1363.34 918.22 1365.67 926.265 1367.86 934.42L1364.02 931.996C1364.43 935.302 1365.26 938.608 1366.35 941.804C1364.3 938.167 1362.51 934.53 1360.73 930.783C1363.2 936.734 1365.67 942.685 1368 948.636C1367.45 948.857 1367.59 948.747 1367.04 948.967C1361.83 943.457 1357.58 937.396 1354.56 931.004C1355.25 934.2 1355.79 937.396 1356.07 940.702C1352.37 937.947 1348.8 935.192 1345.1 932.436C1344.41 931.004 1343.59 929.571 1342.9 928.138C1343.45 929.461 1344 930.673 1344.55 931.996C1345.65 934.861 1346.61 937.726 1347.57 940.592L1343.18 938.167C1338.65 929.902 1334.13 921.636 1329.6 913.371C1332.62 920.755 1335.63 928.249 1338.65 935.632L1326.45 928.91C1323.7 925.383 1321.1 921.967 1318.35 918.441C1320.55 921.636 1322.74 924.832 1324.94 928.028L1319.18 924.832C1323.57 930.453 1328.5 935.743 1333.71 940.812C1337.14 945.881 1340.71 950.951 1344.14 956.13C1340.43 952.383 1336.73 948.747 1333.03 945C1335.91 948.196 1338.65 951.502 1341.39 954.918C1339.34 953.926 1337.28 953.045 1335.22 951.943C1325.21 943.126 1315.75 933.869 1307.11 924.171C1312.87 931.334 1318.49 938.498 1324.25 945.661C1320.82 943.457 1317.53 941.253 1314.51 938.828L1329.74 952.494C1332.62 956.02 1335.36 959.547 1338.24 963.073C1326.17 953.045 1312.73 944.118 1298.06 936.624C1304.91 947.094 1312.87 957.012 1322.06 966.379C1321.78 966.379 1321.65 966.269 1321.37 966.269C1312.46 958.775 1302.31 952.494 1291.06 947.534C1296.27 954.808 1301.9 961.861 1308.07 968.804L1302.86 966.93C1296.41 961.971 1289.55 957.232 1282.42 952.824C1286.67 956.461 1290.79 960.208 1294.77 963.955L1289.69 962.081C1292.71 965.608 1296.82 968.473 1301.35 970.677C1302.17 971.559 1303.13 972.551 1303.95 973.432C1301.9 974.865 1302.58 974.424 1300.66 975.857C1290.93 968.914 1281.19 962.081 1271.45 955.138C1277.49 960.538 1283.11 966.269 1288.32 972.11C1287.5 972 1286.67 972 1285.71 971.89L1289.01 972.881C1292.43 976.738 1295.73 980.596 1298.88 984.673C1294.49 984.232 1290.24 983.571 1285.85 982.579C1279.68 978.943 1273.51 975.416 1267.47 971.779L1286.67 989.412L1279.41 988.751C1270.22 982.8 1261.03 976.959 1251.98 971.008C1262.67 980.485 1273.37 989.963 1284.07 999.33C1282.7 999.551 1281.33 999.661 1280.09 999.881C1269.26 994.041 1258.56 988.2 1247.73 982.359C1255.68 988.53 1263.5 994.592 1271.45 1000.76C1269.12 1000.98 1266.79 1001.09 1264.46 1001.2C1255.95 997.236 1247.59 992.938 1239.5 988.2C1250.06 997.457 1262.26 1005.39 1275.57 1011.89C1275.43 1012.11 1275.57 1012 1275.43 1012.11C1259.38 1006.6 1243.2 1001.2 1227.15 995.694C1241.01 1002.86 1254.86 1009.91 1268.71 1017.07C1254.31 1012.78 1239.91 1008.48 1225.51 1004.18C1241.01 1011.01 1256.64 1017.95 1272.14 1024.9C1257.6 1019.61 1241.97 1016.41 1226.06 1015.42C1236.48 1020.71 1247.59 1025.12 1259.11 1028.42C1258.97 1028.42 1258.97 1028.42 1258.83 1028.42C1248.69 1025.78 1238.4 1023.02 1228.25 1020.38C1239.77 1026.44 1251.15 1032.5 1262.67 1038.67C1251.29 1034.15 1239.36 1030.41 1227.29 1027.43C1234.42 1030.96 1241.83 1034.04 1249.51 1036.69C1243.34 1034.82 1237.03 1033.38 1230.58 1032.17C1234.97 1034.49 1239.63 1036.58 1244.57 1038.23C1240.18 1037.57 1235.79 1037.24 1231.41 1037.57C1237.58 1040.88 1244.85 1042.86 1252.25 1043.3L1198.35 1058.51L1185.19 1053.44C1179.57 1051.24 1172.71 1051.79 1167.77 1054.87C1166.4 1055.75 1164.62 1056.53 1163.11 1056.97C1136.23 1064.24 1105.1 1059.06 1083.29 1044.62C1075.34 1039.44 1063.54 1041.1 1058.47 1048.26L1058.33 1048.37C1056.41 1045.51 1053.67 1043.19 1050.51 1041.32C1051.47 1040.77 1052.43 1040.22 1053.39 1039.67C1069.71 1030.74 1082.61 1017.62 1089.87 1002.86C1090.97 1000.43 1092.07 998.008 1092.89 995.583C1085.07 1012.11 1069.71 1026.33 1050.1 1034.38C1064.64 1025.56 1076.16 1013.44 1082.74 999.771C1083.84 997.347 1084.94 994.922 1085.76 992.498C1080.96 1002.64 1073.28 1011.78 1063.68 1019.39C1072.59 1010.79 1080.27 1001.2 1086.31 991.065C1086.17 991.506 1085.9 992.057 1085.76 992.498C1086.17 991.726 1086.45 990.955 1086.72 990.183C1088.23 987.649 1089.6 985.114 1090.83 982.469C1090.15 983.13 1091.93 974.339 1091.25 975C1093 968 1090.83 975 1088 980.816C1086.31 984.287 1080.63 990.183 1085 985.555C1070.05 1001.2 1057.51 1016.52 1041.33 1031.29C1043.52 1028.98 1045.58 1026.55 1047.5 1024.13C1063.13 1011.34 1075.61 996.024 1083.7 979.383C1077.12 986.326 1070.4 993.269 1063.54 999.992C1069.44 989.192 1073.69 977.73 1076.43 966.159C1069.17 987.538 1055.73 1007.71 1037.49 1024.46C1053.26 1006.05 1064.23 985.004 1069.3 963.073C1065.33 974.645 1059.57 985.775 1052.3 996.245C1056.41 983.351 1058.06 969.685 1059.57 956.461C1055.45 977.069 1047.5 997.126 1036.11 1015.86C1034.61 1017.4 1033.1 1018.84 1031.59 1020.27C1031.73 1019.83 1031.86 1019.39 1031.86 1018.95C1046.95 999.991 1049.97 976.077 1052.43 953.485C1049.28 969.575 1043.66 985.334 1035.98 1000.43C1038.99 985.334 1041.46 970.236 1043.11 955.028C1039.41 972.44 1035.29 989.588 1031.59 1007C1030.22 1009.31 1029.53 1012 1028.02 1014.21C1026.5 1010 1030.64 1005.69 1030.5 1001.5C1031.59 984.563 1036 968.5 1035.98 951.943C1033.23 965.277 1030.49 978.502 1027.61 991.836C1027.06 977.841 1026.24 963.955 1024.73 950.069C1024.32 970.567 1023.91 991.175 1023.5 1011.67C1022.81 1015.09 1022.13 1018.51 1021.3 1021.92C1021.17 1021.26 1021.03 1020.49 1020.75 1019.83C1021.17 995.583 1020.07 971.228 1017.6 946.983C1017.33 959.877 1017.05 972.661 1016.78 985.555C1015.68 975.967 1014.58 966.269 1013.49 956.681C1014.31 969.465 1014.45 980.816 1015 994.5C1014.86 1001.55 1016.23 1009.03 1016.09 1016.08C1014.72 1012.89 1015.68 1009.2 1014.58 1006C1012.66 988.367 1012 970.5 1006.49 953.596C1006 969.5 1008.41 986.216 1011.02 1002.31C1011.5 997.5 1009.51 997.787 1008.82 995.473C1010.06 1001.2 1011.29 1006.82 1012.8 1012.44C1013.07 1013.55 1013.21 1014.65 1013.49 1015.75C1013.49 1015.42 1013.35 1014.98 1013.35 1014.65C1014.17 1017.95 1015.13 1021.15 1015.95 1024.35C1015.95 1024.79 1015.95 1025.34 1015.95 1025.78C1014.99 1022.47 1014.17 1019.06 1013.49 1015.75C1013.76 1018.84 1014.17 1021.81 1014.45 1024.9C1009.23 1014.32 1004.98 1003.52 1001.69 992.498C1003.61 1001.53 1005.81 1010.57 1008.27 1019.5C996.48 1001.53 988.389 982.028 984.549 961.971C985.92 978.502 988.909 995.292 997 1010.5C1000.02 1016.34 1005.53 1021.59 1010.33 1026.55C1010.74 1027.76 1011.02 1028.98 1011.43 1030.3C1012.39 1030.96 1013.49 1031.62 1014.58 1032.17C1012.11 1031.84 1009.65 1031.29 1007.45 1030.52C1000.59 1026.77 994.971 1021.26 990.994 1015.31C984.686 1005.61 982.217 994.702 979.886 983.902C978.789 998.559 985.097 1013.33 996.206 1024.9C991.132 1021.37 987.017 1016.96 983.863 1012.22C977.554 1002.53 975.086 991.616 972.754 980.816C972.5 1013 985.097 1023.46 1006.9 1035.37C1000.32 1033.49 992.914 1033.93 986.606 1036.69C962.606 1047.38 938.057 1057.08 912.823 1065.78C813.12 1050.35 707.52 1058.4 604.8 1051.35C607.543 1050.35 610.149 1049.36 612.891 1048.48C609.326 1049.36 605.76 1050.24 602.057 1051.13C596.709 1050.8 591.36 1050.35 586.011 1049.8C591.36 1046.72 596.297 1043.3 600.686 1039.55C592.869 1042.2 585.463 1045.4 578.331 1049.03C576.823 1048.92 575.314 1048.7 573.806 1048.59C580.526 1042.86 587.794 1037.46 595.611 1032.61C587.109 1037.79 578.469 1042.97 569.966 1048.15C567.497 1047.93 564.891 1047.6 562.423 1047.27C564.48 1045.29 566.674 1043.41 569.006 1041.54C566.126 1043.41 563.109 1045.18 559.954 1046.94C558.583 1046.72 557.211 1046.61 555.84 1046.39C558.446 1044.4 560.914 1042.53 563.52 1040.66C560.64 1042.53 557.76 1044.4 554.743 1046.28C552.274 1045.95 549.806 1045.62 547.337 1045.29C555.017 1036.58 564.343 1028.75 573.394 1021.04C562.286 1028.75 551.314 1036.58 540.206 1044.29C539.109 1044.07 538.011 1043.96 536.914 1043.74C537.737 1042.86 538.56 1041.87 539.52 1040.99C538.011 1041.87 536.503 1042.64 534.994 1043.52C534.034 1043.41 533.074 1043.19 532.114 1043.08C544.32 1030.08 556.663 1017.07 568.869 1004.07C554.88 1016.74 541.029 1029.53 527.04 1042.2C526.629 1042.09 526.217 1042.09 525.806 1041.98C534.171 1032.83 542.537 1023.58 550.766 1014.43C541.714 1023.46 532.526 1032.5 523.474 1041.65C523.063 1041.54 522.651 1041.54 522.24 1041.43C532.251 1027.32 541.714 1012.78 546.514 997.126C535.68 1011.12 525.806 1025.67 516.754 1040.44C516.617 1040.44 516.617 1040.44 516.48 1040.44C523.611 1027.1 530.606 1013.88 537.737 1000.54C528 1013.11 519.086 1026.11 510.994 1039.33C510.857 1039.33 510.72 1039.22 510.583 1039.22C517.989 1025.12 525.394 1011.01 532.663 996.906C524.709 1010.9 516.891 1024.9 508.937 1039C508.8 1039 508.663 1039 508.526 1038.89C516.343 1019.61 524.297 1000.32 532.114 981.147C518.126 997.347 508.114 1015.75 503.04 1035.15C504 1027.87 505.509 1020.49 507.291 1013.33C505.234 1019.61 503.314 1025.89 501.257 1032.17C502.08 1024.02 502.903 1015.75 503.589 1007.6C502.217 1017.4 500.16 1027.1 497.143 1036.69H497.006C496.869 1024.24 496.731 1011.78 496.594 999.33C496.32 1011.67 496.183 1024.02 495.909 1036.47C495.634 1036.47 495.497 1036.36 495.223 1036.36C490.697 1027.43 486.034 1018.51 481.509 1009.69C484.526 1018.29 487.543 1026.77 490.56 1035.37C489.463 1035.15 488.503 1034.93 487.406 1034.6C481.234 1026.99 474.651 1019.72 467.794 1012.55C470.4 1019.5 473.966 1026.11 478.354 1032.39C477.669 1032.17 476.983 1032.06 476.297 1031.84C471.497 1026.33 467.109 1020.49 463.269 1014.54C465.874 1019.72 468.206 1024.9 470.126 1030.3C467.794 1027.1 465.463 1023.91 463.269 1020.6C463.543 1021.81 463.68 1023.02 463.817 1024.24C462.171 1023.24 460.663 1022.25 459.291 1021.15C461.074 1023.69 462.857 1026.22 464.503 1028.86C460.937 1027.87 457.371 1026.88 453.806 1025.78C446.674 1019.94 439.954 1013.66 433.92 1007.15C434.743 1011.89 436.251 1016.63 438.446 1021.15C425.143 1016.85 411.977 1012.11 399.086 1006.93C404.983 1005.17 410.88 1003.41 416.777 1001.64C430.491 999.661 443.931 996.906 457.097 993.379C451.2 993.82 445.303 994.261 439.269 994.702C470.811 985.004 502.217 974.755 532.663 962.853C488.64 970.787 445.577 982.469 404.297 997.347C396.343 997.898 388.389 998.559 380.571 999.11C379.063 998.449 377.554 997.787 376.046 997.126C379.749 995.253 383.314 993.49 386.88 991.506C417.737 983.571 447.086 972.771 469.851 954.698C449.006 964.396 427.474 973.102 405.394 980.926C425.554 968.804 444.206 955.028 460.937 939.93C427.611 956.13 395.109 973.543 363.566 992.057C360.411 990.845 357.394 989.632 354.24 988.64C354.651 988.2 355.063 987.759 355.337 987.318C383.589 963.734 401.417 932.106 435.703 909.955C416.777 921.857 399.909 935.743 384 950.289C399.223 927.587 411.429 903.453 419.931 878.547C399.771 916.457 373.577 952.383 342.171 985.004C340.937 984.673 339.703 984.453 338.469 984.122C355.063 942.024 373.577 900.367 393.874 859.371C376.594 894.416 359.177 929.571 341.897 964.616C356.709 920.865 371.52 877.114 386.194 833.363C365.897 875.461 348.206 918.33 332.983 961.751C344.091 908.302 355.2 854.853 366.309 801.404C349.44 830.608 344.777 863.228 340.251 895.187C336.686 920.865 332.983 946.543 329.417 972.11C328.457 975.085 327.36 978.171 326.4 981.147C328.183 919.102 330.103 857.057 331.886 795.012C323.246 849.343 318.994 904.224 319.131 958.996C307.611 896.841 298.286 834.465 291.429 771.869C291.017 787.077 290.88 802.285 291.291 817.383C290.331 807.245 289.509 797.106 288.686 786.967C287.177 851.547 294.034 916.236 309.12 979.714C308.434 979.604 307.611 979.604 306.926 979.494C282.24 918.881 265.234 856.285 255.909 792.918C257.006 855.294 271.131 917.449 297.463 976.077C298.286 977.069 299.109 977.951 299.931 978.943C299.52 978.943 299.109 978.832 298.697 978.832C298.286 977.951 297.874 977.069 297.463 976.077C294.171 972.33 291.017 968.473 287.863 964.726C289.92 967.922 291.84 971.118 293.897 974.314C293.211 973.543 292.663 972.881 291.977 972.11C292.663 972.991 293.486 973.873 294.171 974.865C294.994 976.187 295.817 977.51 296.64 978.832C293.486 978.612 290.469 978.391 287.314 978.171C283.749 976.518 280.183 974.975 276.48 973.543C269.897 969.355 263.589 964.836 257.417 960.318C261.257 963.845 265.097 967.371 269.211 970.787C248.777 963.073 227.109 957.453 204.891 954.147C207.909 953.816 210.789 953.375 213.669 952.494C192.823 946.983 170.469 945.11 148.526 946.763C164.709 941.804 181.029 936.734 197.211 931.775C176.091 937.506 153.6 940.371 131.246 940.04C131.52 939.93 131.794 939.82 132.206 939.71C131.657 939.93 131.109 940.041 130.56 940.261C130.149 940.041 129.737 939.93 129.326 939.71C130.286 939.159 131.246 938.608 132.206 937.947C153.463 925.053 174.72 911.938 195.566 898.714C172.663 912.71 148.663 925.714 123.84 937.506C122.88 937.065 121.92 936.734 120.823 936.294C143.177 919.543 165.531 902.902 187.886 886.151C162.24 901.138 137.006 916.677 112.32 932.767C112.183 932.657 112.046 932.657 111.909 932.547C136.869 914.914 160.183 895.738 181.577 875.351C157.577 893.204 133.44 910.947 109.029 928.579C134.4 907.2 159.771 885.71 185.143 864.33C161.691 884.608 135.36 904.334 108.343 923.51C109.166 922.738 109.851 921.967 110.674 921.196C133.44 903.563 154.423 884.498 173.349 864.22C154.423 879.649 136.32 895.849 119.177 912.6C125.897 905.877 132.48 899.155 139.2 892.432C126.446 904.114 113.143 915.355 99.0171 926.045C123.429 897.832 147.977 869.51 168.549 839.424C150.034 853.2 133.44 868.738 119.314 885.6C127.543 873.477 135.771 861.465 144 849.343C129.874 864.771 118.766 881.632 108.754 899.045C104.503 904.885 100.526 910.726 96.8229 916.787C107.246 890.118 117.669 863.338 127.954 836.669C112.457 864.11 99.4286 892.653 89.1429 921.747C88.32 921.416 87.4972 921.085 86.6743 920.645C86.9486 919.212 87.0857 917.669 87.36 916.236C86.9486 917.669 86.5371 918.992 86.1257 920.424C86.1257 920.424 85.9886 920.424 85.9886 920.314C87.0857 913.812 88.0457 907.2 89.28 900.698C87.9086 907.089 86.5372 913.592 85.1657 919.983C85.1657 919.983 85.0286 919.983 85.0286 919.873C84.6171 916.787 84.0686 913.592 83.6571 910.506C83.6571 913.151 83.6572 915.685 83.52 918.33C83.6572 918.661 83.6572 918.992 83.7943 919.322C83.7943 919.322 83.7943 919.322 83.6571 919.322C83.6571 919.102 83.52 918.881 83.52 918.661C83.52 918.881 83.52 918.992 83.52 919.212C81.3257 918.22 79.1314 917.228 76.9371 916.236C65.6914 901.69 53.6229 887.583 40.5943 874.138C47.3143 887.583 56.64 899.816 66.9257 911.718C65.4171 911.057 63.7714 910.285 62.2629 909.624C50.7429 898.824 38.9486 888.134 26.88 877.775C31.8171 884.828 37.5771 891.661 43.6114 898.163C31.5429 889.567 20.16 880.2 6.85715 872.926C11.1086 879.869 16.7314 886.261 23.1771 891.992C11.6571 886.812 0.274287 881.522 -11.2457 876.343C-20.16 872.265 -27.1543 884.938 -37.3029 884.938V1109.75L916.937 1106.67C936.549 1116.81 964.8 1110.42 978.514 1095.87L1948.94 1094.22L1948.8 575.045ZM93.9429 923.84C94.2171 922.959 94.6286 922.187 94.9028 921.306C97.3714 917.779 99.7029 914.253 102.171 910.726C99.7029 915.245 97.3714 919.763 95.04 924.281C94.6286 924.171 94.2171 923.951 93.9429 923.84ZM102.446 927.587L102.309 927.477C104.914 925.604 107.52 923.62 109.989 921.636C109.303 922.298 108.617 923.069 107.931 923.73C106.149 925.053 104.229 926.265 102.446 927.587ZM271.543 976.738C233.829 972.992 197.897 963.734 163.2 951.502C170.606 952.163 178.149 952.824 185.554 953.485C192.549 954.147 199.68 954.698 206.537 954.147C231.634 960.538 256.183 968.363 280.046 977.4C277.303 977.29 274.423 977.069 271.543 976.738ZM1029.67 1022.8C1029.39 1023.13 1028.98 1023.35 1028.71 1023.69V1023.58C1029.12 1023.24 1029.39 1022.8 1029.81 1022.47C1029.81 1022.47 1029.81 1022.69 1029.67 1022.8ZM1021.99 1023.02C1021.85 1023.58 1021.71 1024.13 1021.71 1024.68C1021.71 1023.35 1021.71 1022.03 1021.71 1020.6C1021.71 1021.48 1021.85 1022.25 1021.99 1023.02ZM1016.37 1039.22C1016.64 1039.33 1017.05 1039.44 1017.33 1039.55C1017.19 1039.55 1017.19 1039.67 1017.05 1039.67C1016.91 1039.55 1016.64 1039.44 1016.37 1039.22ZM1293.53 997.787C1289.14 995.032 1284.89 992.167 1280.5 989.412C1283.11 989.853 1285.58 990.294 1288.18 990.734C1290.65 992.938 1293.12 995.143 1295.45 997.457C1294.9 997.567 1294.22 997.677 1293.53 997.787ZM1299.7 990.624L1303.82 990.955C1304.37 991.726 1304.91 992.498 1305.46 993.379C1304.64 993.159 1303.95 992.938 1303.27 992.718C1302.03 992.057 1300.8 991.396 1299.7 990.624ZM1304.37 993.49C1304.78 993.6 1305.19 993.6 1305.6 993.71C1305.87 994.041 1306.01 994.261 1306.29 994.592C1305.6 994.151 1305.05 993.82 1304.37 993.49ZM1302.31 977.069L1309.03 979.163C1310.81 981.257 1312.59 983.351 1314.24 985.555C1310.26 982.689 1306.29 979.824 1302.31 977.069ZM1341.12 947.645C1342.49 948.747 1343.73 949.849 1345.1 950.951C1345.65 952.163 1346.06 953.375 1346.61 954.698C1344.82 952.273 1342.9 949.959 1341.12 947.645ZM1350.45 942.245C1348.8 939.049 1347.15 935.963 1345.65 932.767C1349.35 935.743 1353.05 938.828 1356.62 941.804C1356.75 943.126 1356.89 944.449 1357.03 945.881L1350.45 942.245ZM1390.22 948.526V948.416C1390.49 948.636 1390.77 948.857 1391.04 948.967C1391.04 948.967 1391.04 948.967 1391.04 949.077L1390.22 948.526Z" fill="black"/>
<path d="M289.783 964.837C284.16 955.8 278.674 946.763 273.189 937.616C268.937 928.469 265.234 919.212 261.531 909.955C247.406 874.359 233.417 838.763 219.291 803.167C221.074 822.233 224.914 841.188 230.674 859.702C228.617 855.624 226.697 851.657 224.64 847.579C229.166 861.355 234.789 874.8 241.097 888.135C253.851 917.89 271.543 946.322 293.76 972.22C289.646 967.041 285.943 961.641 282.651 956.02C285.12 958.996 287.451 961.971 289.783 964.837Z" fill="black"/>
<path d="M83.6571 910.506C83.9314 885.159 84.3428 859.812 84.6171 834.465C78.3086 859.482 80.2286 885.159 83.6571 910.506Z" fill="black"/>
<path d="M89.28 900.698C93.3943 880.971 97.6457 861.355 101.76 841.629C96.96 861.245 92.7086 880.971 89.28 900.698Z" fill="black"/>
<path d="M67.6114 858.49C62.4 878.767 77.6228 898.273 83.52 918.661C83.52 918.551 83.52 918.441 83.52 918.331C78.3086 898.384 72.96 878.437 67.6114 858.49Z" fill="black"/>
<path d="M134.4 939.6C155.52 933.318 176.091 926.045 196.114 917.669C175.543 925.053 154.971 932.327 134.4 939.6Z" fill="black"/>
<path d="M139.063 892.322C151.543 880.861 163.337 868.959 174.446 856.727C162.651 868.629 150.857 880.531 139.063 892.322Z" fill="black"/>
<path d="M87.36 916.237C95.7257 889.347 104.091 862.457 112.594 835.677C100.526 861.686 92.0228 888.686 87.36 916.237Z" fill="black"/>
<path d="M992.777 1006.82C997.303 1015.53 1003.34 1024.13 1012.25 1030.08C994.971 1008.59 983.314 984.122 978.514 958.886C979.886 975.306 984.686 991.616 992.777 1006.82Z" fill="black"/>
<path d="M1012.53 1030.41C1012.53 1030.3 1012.53 1030.3 1012.53 1030.19C1012.39 1030.19 1012.39 1030.08 1012.25 1030.08C1012.39 1030.19 1012.39 1030.3 1012.53 1030.41Z" fill="black"/>
<path d="M1721.41 861.454C1715.42 861.523 1709.46 861.697 1703.47 861.765C1714.84 842.37 1702.79 821.245 1687.76 806.419C1672.73 791.593 1653.68 778.198 1648.79 758.497C1644.11 739.535 1653.77 718.699 1652.77 699.098C1650.49 655.145 1598.79 630.704 1571.84 595.175C1549.4 565.656 1544.45 526.184 1558.63 489.845C1561.58 510.703 1550.66 533.528 1557.35 553.496C1565.47 577.754 1596.33 588.994 1618.71 604.954C1645.84 624.326 1662.06 653.636 1663 684.99C1664.06 717.227 1651.28 755.336 1676.28 777.645C1686.59 786.751 1702.29 791.831 1709.24 803.094C1719.89 820.498 1705.66 847.076 1721.41 861.454Z" fill="black"/>
<path d="M1701.18 769.961C1698.51 759.602 1695.98 748.281 1701.69 737.713C1706.47 728.805 1716.36 722.162 1722.25 713.613C1736.32 693.181 1723.47 670.34 1719.01 648.78C1712.41 617.165 1724.89 583.29 1737.22 550.839C1710.6 612.071 1765.15 678.566 1726.75 736.307C1722.29 742.933 1716.76 749.307 1714.59 756.399C1711.46 766.537 1715.71 776.423 1719.11 785.873C1729.26 814.012 1732.14 844.67 1727.85 875.289C1718.92 840.228 1709.97 805.061 1701.18 769.961Z" fill="black"/>
<path d="M1679.78 649.711C1646.86 590.892 1642.42 519.171 1667.7 452.015C1645.94 520.879 1670.19 588.969 1696.09 652.075C1706.08 676.349 1716.42 701.784 1710.4 728.548C1708.41 737.197 1704.68 745.79 1703.28 754.493C1700.56 770.263 1704.88 785.65 1711.24 799.734C1719.71 818.479 1731.54 835.99 1746.31 851.356C1742.03 856.664 1734.88 860.529 1727.51 861.241C1717.63 838.774 1707.75 816.308 1697.88 793.841C1689.06 773.935 1680.29 752.288 1687.95 730.552C1690.55 722.986 1695.12 715.753 1697.29 708.199C1703.15 687.12 1689.97 667.944 1679.78 649.711Z" fill="black"/>
<path d="M1577.29 682.237C1564.84 637.304 1477.56 633.638 1469.61 587.473C1465.22 608.688 1483.07 626.236 1501.7 638.72C1520.32 651.205 1542.03 662.996 1549.16 682.49C1554.98 698.579 1549.74 716.942 1550.08 734.327C1551.04 778.673 1593.63 815.733 1646.48 818.202C1660.84 818.848 1677.23 817.625 1687.16 825.464C1698.56 834.361 1697.03 851.729 1709.52 859.494C1716.15 857.277 1722 852.882 1725.29 847.638C1712.72 826.209 1688.7 810.51 1660.3 805.09C1646.78 802.468 1632.21 802.112 1619.49 797.868C1584.97 786.344 1574.2 750.343 1577.07 717.849C1578.08 705.927 1580.37 693.507 1577.29 682.237Z" fill="black"/>
<path d="M1793.2 567.097C1777.53 602.272 1762.07 642.447 1781.82 672.541C1788.9 683.304 1800.39 692.979 1799.53 705.891C1799.1 712.115 1795.9 718.137 1792.63 723.948C1785.08 737.48 1777.24 750.986 1769.24 764.425C1761.14 778.009 1752.77 791.671 1749.38 806.147C1745.98 820.624 1748.5 836.205 1760.08 845.736C1747.77 849.539 1735.32 853.381 1723 857.184C1722.59 840.511 1723.95 823.539 1730.31 807.023C1737.79 787.529 1751.93 769.722 1762.93 751.013C1773.97 732.409 1782.12 711.333 1776.13 692.764C1773.44 684.252 1767.89 676.711 1764.05 668.658C1748.55 636.487 1760.66 594.209 1793.2 567.097Z" fill="black"/>
<path d="M1730.09 833.547C1723.13 835.632 1716.14 837.611 1709.04 839.735C1708.63 825.938 1694.82 816.153 1680.18 810.758C1665.54 805.364 1649.07 802.472 1636.65 794.456C1613.92 779.749 1610.22 752.096 1608.73 727.007C1607.33 701.773 1605.56 674.348 1585.08 657.587C1603.1 674.739 1615.24 696.181 1620.07 719.47C1624.48 741.386 1623.56 766.51 1641.57 781.711C1653.25 791.558 1670.63 795.098 1685.78 801.258C1703.78 808.295 1719.18 819.56 1730.09 833.547Z" fill="black"/>
<path opacity="0.3" d="M552.686 885.6C560.64 882.073 573.12 877.775 587.246 877.775C611.109 877.775 610 890.559 610 890.559C610 890.559 611.109 902.571 587.246 902.571C573.943 902.571 560.64 898.916 552.686 895.5L531.154 898.604L535.5 890.559L531.154 882.514L552.686 885.6Z" fill="#2C376D"/>
<path opacity="0.59" d="M849.6 1001.53C849.6 1001.53 859.063 1008.48 867.291 996.796C867.291 996.796 869.211 995.253 875.109 998.339C881.006 1001.53 884.16 982.249 884.16 982.249C884.16 982.249 878.674 978.502 875.931 982.91C873.189 987.318 871.269 985.776 867.291 979.384C863.451 973.102 851.931 980.265 851.931 980.265C851.931 980.265 828.068 979.274 826.011 984.012C824.091 988.751 836.983 994.702 836.983 994.702C836.983 994.702 834.651 1004.84 839.314 1001.98C844.114 999.331 849.6 1001.53 849.6 1001.53Z" fill="#010B1C"/>
<path opacity="0.59" d="M1065.74 908.082C1065.74 908.082 1072.32 916.898 1084.39 907.641C1084.39 907.641 1086.86 906.539 1091.38 910.947C1095.91 915.355 1105.78 897.612 1105.78 897.612C1105.78 897.612 1101.81 892.763 1097.69 896.29C1093.44 899.927 1092.21 897.943 1090.7 891C1089.19 884.057 1075.75 888.355 1075.75 888.355C1075.75 888.355 1053.12 881.963 1049.55 886.041C1045.99 890.118 1056.27 898.825 1056.27 898.825C1056.27 898.825 1050.38 907.972 1056 906.318C1061.21 904.665 1065.74 908.082 1065.74 908.082Z" fill="#010B1C"/>
<path opacity="0.59" d="M1165.03 1003.96C1165.03 1003.96 1173.81 1011.45 1182.99 1000.21C1182.99 1000.21 1185.05 998.78 1190.67 1002.2C1196.3 1005.72 1201.1 986.657 1201.1 986.657C1201.1 986.657 1195.89 982.58 1192.87 986.767C1189.71 991.065 1187.93 989.302 1184.5 982.8C1181.07 976.298 1169.14 982.91 1169.14 982.91C1169.14 982.91 1145.42 980.596 1142.95 985.224C1140.62 989.853 1152.96 996.575 1152.96 996.575C1152.96 996.575 1149.67 1006.49 1154.74 1003.96C1159.68 1001.42 1165.03 1003.96 1165.03 1003.96Z" fill="#010B1C"/>
</g>
<defs>
<clipPath id="clip0_4_206">
<rect width="1920" height="1080" fill="white"/>
</clipPath>
</defs>
</svg>
