<svg width="1940" height="1088" viewBox="0 0 1940 1088" fill="none" xmlns="http://www.w3.org/2000/svg">
<g filter="url(#filter0_d_2_2)">
<path d="M10 0H1930V1080H10V0Z" fill="url(#paint0_linear_2_2)"/>
<path d="M1637.6 31.1952C1637.6 30.9648 1637.6 30.7344 1637.6 30.5034" stroke="white" stroke-width="2.9602" stroke-miterlimit="10" stroke-linecap="round" stroke-linejoin="round"/>
<path d="M1596.99 106.576C1596.75 106.807 1596.5 107.037 1596.25 107.268" stroke="white" stroke-width="2.9602" stroke-miterlimit="10" stroke-linecap="round" stroke-linejoin="round"/>
<path d="M1498.06 56.0916C1497.81 56.0916 1497.56 56.0916 1497.32 56.0916" stroke="white" stroke-width="2.9602" stroke-miterlimit="10" stroke-linecap="round" stroke-linejoin="round"/>
<path d="M1526.85 126.631C1526.85 126.401 1526.85 126.17 1526.85 125.939" stroke="white" stroke-width="2.9602" stroke-miterlimit="10" stroke-linecap="round" stroke-linejoin="round"/>
<path d="M1742.45 190.947C1742.45 190.717 1742.45 190.486 1742.45 190.255" stroke="white" stroke-width="2.9602" stroke-miterlimit="10" stroke-linecap="round" stroke-linejoin="round"/>
<path d="M1879.78 207.545C1880.02 207.314 1880.27 207.084 1880.52 206.853" stroke="white" stroke-width="2.9602" stroke-miterlimit="10" stroke-linecap="round" stroke-linejoin="round"/>
<path d="M1839.17 152.219C1839.17 152.45 1839.17 152.68 1839.17 152.911" stroke="white" stroke-width="2.9602" stroke-miterlimit="10" stroke-linecap="round" stroke-linejoin="round"/>
<path d="M1872.39 63.0072C1872.39 62.7768 1872.39 62.5464 1872.39 62.3154" stroke="white" stroke-width="2.9602" stroke-miterlimit="10" stroke-linecap="round" stroke-linejoin="round"/>
<path d="M1893.81 42.9516C1894.05 42.4908 1894.3 42.0294 1894.55 41.5686" stroke="white" stroke-width="2.9602" stroke-miterlimit="10" stroke-linecap="round" stroke-linejoin="round"/>
<path d="M1913 69.231C1913 69.0006 1913 68.7702 1913 68.5392" stroke="white" stroke-width="2.9602" stroke-miterlimit="10" stroke-linecap="round" stroke-linejoin="round"/>
<path d="M1807.42 56.0916C1807.17 56.0916 1806.93 56.0916 1806.68 56.0916" stroke="white" stroke-width="2.9602" stroke-miterlimit="10" stroke-linecap="round" stroke-linejoin="round"/>
<path d="M1827.7 231.641C1827.7 231.232 1827.7 230.824 1827.7 230.416" stroke="white" stroke-width="2.9602" stroke-miterlimit="10" stroke-linecap="round" stroke-linejoin="round"/>
<path d="M1778 349.257C1778 348.848 1778 348.44 1778 348.032" stroke="white" stroke-width="2.9602" stroke-miterlimit="10" stroke-linecap="round" stroke-linejoin="round"/>
<path d="M1304.49 83.3964C1304.05 83.805 1303.62 84.213 1303.18 84.6216" stroke="white" stroke-width="2.9602" stroke-miterlimit="10" stroke-linecap="round" stroke-linejoin="round"/>
<path d="M1252.17 50.3166C1252.17 49.908 1252.17 49.5 1252.17 49.0914" stroke="white" stroke-width="2.9602" stroke-miterlimit="10" stroke-linecap="round" stroke-linejoin="round"/>
<path d="M1206.39 189.985C1205.95 189.985 1205.52 189.985 1205.08 189.985" stroke="white" stroke-width="2.9602" stroke-miterlimit="10" stroke-linecap="round" stroke-linejoin="round"/>
<path d="M1176.3 252.469C1176.74 252.469 1177.17 252.469 1177.61 252.469" stroke="white" stroke-width="2.9602" stroke-miterlimit="10" stroke-linecap="round" stroke-linejoin="round"/>
<path d="M1010.18 109.124C1011.49 109.124 1012.8 109.124 1014.11 109.124" stroke="white" stroke-width="2.9602" stroke-miterlimit="10" stroke-linecap="round" stroke-linejoin="round"/>
<path d="M1120.06 101.774C1119.62 101.774 1119.19 101.774 1118.75 101.774" stroke="white" stroke-width="2.9602" stroke-miterlimit="10" stroke-linecap="round" stroke-linejoin="round"/>
<path d="M804.824 186.31C805.259 185.902 805.695 185.494 806.132 185.085" stroke="white" stroke-width="2.9602" stroke-miterlimit="10" stroke-linecap="round" stroke-linejoin="round"/>
<path d="M728.958 107.899C729.394 108.308 729.83 108.716 730.266 109.124" stroke="white" stroke-width="2.9602" stroke-miterlimit="10" stroke-linecap="round" stroke-linejoin="round"/>
<path d="M91.9483 247.568C92.3842 247.568 92.82 247.568 93.2566 247.568" stroke="white" stroke-width="2.9602" stroke-miterlimit="10" stroke-linecap="round" stroke-linejoin="round"/>
<path d="M464.736 227.966C464.736 226.954 464.736 226.954 464.736 227.966" stroke="white" stroke-width="2.9602" stroke-miterlimit="10" stroke-linecap="round" stroke-linejoin="round"/>
<path d="M382.33 82.1712C382.766 82.1712 383.202 82.1712 383.639 82.1712" stroke="white" stroke-width="2.9602" stroke-miterlimit="10" stroke-linecap="round" stroke-linejoin="round"/>
<path d="M489.588 39.2904C489.588 39.699 489.588 40.107 489.588 40.5156" stroke="white" stroke-width="2.9602" stroke-miterlimit="10" stroke-linecap="round" stroke-linejoin="round"/>
<path d="M326.085 24.588C326.521 24.9966 326.957 25.4046 327.393 25.8132" stroke="white" stroke-width="2.9602" stroke-miterlimit="10" stroke-linecap="round" stroke-linejoin="round"/>
<path d="M224.059 13.5618C224.059 13.1532 224.059 12.7452 224.059 12.3366" stroke="white" stroke-width="2.9602" stroke-miterlimit="10" stroke-linecap="round" stroke-linejoin="round"/>
<path d="M54.0158 69.9192C53.5799 69.9192 53.1441 69.9192 52.7075 69.9192" stroke="white" stroke-width="2.9602" stroke-miterlimit="10" stroke-linecap="round" stroke-linejoin="round"/>
<path d="M98.4884 11.1114C98.9243 10.7028 99.3602 10.2948 99.7967 9.8862" stroke="white" stroke-width="2.9602" stroke-miterlimit="10" stroke-linecap="round" stroke-linejoin="round"/>
<g opacity="0.4">
<path opacity="0.4" d="M363.124 193.664C362.724 193.664 362.323 193.664 361.923 193.664" stroke="white" stroke-width="2.7185" stroke-miterlimit="10" stroke-linecap="round" stroke-linejoin="round"/>
<path opacity="0.4" d="M706.675 230.794C707.075 230.794 707.476 230.794 707.876 230.794" stroke="white" stroke-width="2.7185" stroke-miterlimit="10" stroke-linecap="round" stroke-linejoin="round"/>
<path opacity="0.4" d="M1330.11 35.0208C1329.71 35.0208 1329.31 35.0208 1328.91 35.0208" stroke="white" stroke-width="2.7185" stroke-miterlimit="10" stroke-linecap="round" stroke-linejoin="round"/>
<path opacity="0.4" d="M1404.59 157.66C1404.19 157.66 1403.79 157.66 1403.39 157.66" stroke="white" stroke-width="2.7185" stroke-miterlimit="10" stroke-linecap="round" stroke-linejoin="round"/>
<path opacity="0.4" d="M1521.11 183.538C1521.11 183.913 1521.11 184.288 1521.11 184.663" stroke="white" stroke-width="2.7185" stroke-miterlimit="10" stroke-linecap="round" stroke-linejoin="round"/>
<path opacity="0.4" d="M1749.34 33.8958C1748.94 33.8958 1748.54 33.8958 1748.14 33.8958" stroke="white" stroke-width="2.7185" stroke-miterlimit="10" stroke-linecap="round" stroke-linejoin="round"/>
<path opacity="0.4" d="M1793.79 118.28C1793.79 118.655 1793.79 119.03 1793.79 119.405" stroke="white" stroke-width="2.7185" stroke-miterlimit="10" stroke-linecap="round" stroke-linejoin="round"/>
<path opacity="0.4" d="M1835.83 91.2774C1835.83 90.9024 1835.83 90.5274 1835.83 90.1524" stroke="white" stroke-width="2.7185" stroke-miterlimit="10" stroke-linecap="round" stroke-linejoin="round"/>
<path opacity="0.4" d="M1766.16 209.416C1766.56 209.791 1766.96 210.166 1767.36 210.541" stroke="white" stroke-width="2.7185" stroke-miterlimit="10" stroke-linecap="round" stroke-linejoin="round"/>
<path opacity="0.4" d="M1793.79 263.422C1794.19 263.422 1794.59 263.422 1794.99 263.422" stroke="white" stroke-width="2.7185" stroke-miterlimit="10" stroke-linecap="round" stroke-linejoin="round"/>
</g>
<path d="M275 152C275 181.969 263.147 210.711 242.049 231.903C220.952 253.095 192.337 265 162.5 265C132.663 265 104.048 253.095 82.9505 231.903C61.8526 210.711 50 181.969 50 152C50 129.651 56.598 107.803 68.9597 89.2206C81.3213 70.6378 98.8914 56.1544 119.448 47.6017C140.005 39.049 162.625 36.8112 184.448 41.1713C206.27 45.5314 226.316 56.2936 242.049 72.097C257.783 87.9003 268.497 108.035 272.838 129.955C277.179 151.875 274.951 174.595 266.436 195.243C257.922 215.891 243.502 233.539 225.002 245.956C206.501 258.373 184.75 265 162.5 265V39.0001C192.337 39.0001 220.952 50.9054 242.049 72.097C263.147 93.2886 275 122.031 275 152V152Z" fill="#F9CB4E"/>
<path d="M275 153.5C275 182.276 265.044 209.873 247.322 230.221C229.599 250.569 205.563 262 180.5 262C155.437 262 131.401 250.569 113.678 230.221C95.9563 209.873 86 182.276 86 153.5C86 132.041 91.5424 111.063 101.926 93.2207C112.31 75.3779 127.069 61.4712 144.336 53.2591C161.604 45.047 180.605 42.8983 198.936 47.0848C217.267 51.2713 234.106 61.605 247.322 76.7789C260.538 91.9529 269.538 111.286 273.184 132.333C276.83 153.38 274.959 175.195 267.807 195.021C260.654 214.847 248.542 231.792 233.001 243.714C217.461 255.637 199.19 262 180.5 262C161.81 262 143.539 255.637 127.999 243.714C112.458 231.792 100.346 214.847 93.1934 195.021C86.0409 175.195 84.1695 153.38 87.8158 132.333C91.4621 111.286 100.462 91.9529 113.678 76.7789C126.894 61.605 143.733 51.2713 162.064 47.0848C180.395 42.8983 199.396 45.047 216.664 53.2591C233.931 61.4712 248.69 75.3779 259.074 93.2207C269.458 111.063 275 132.041 275 153.5V153.5Z" fill="#FAD775"/>
<g opacity="0.37">
<path opacity="0.37" d="M117.227 129.168C117.227 133.926 115.602 138.489 112.709 141.853C109.817 145.217 105.894 147.107 101.803 147.107C97.7122 147.107 93.789 145.217 90.8965 141.853C88.0039 138.489 86.3789 133.926 86.3789 129.168C86.3789 125.62 87.2835 122.152 88.9783 119.202C90.6731 116.252 93.082 113.953 95.9004 112.595C98.7188 111.237 101.82 110.882 104.812 111.574C107.804 112.266 110.552 113.975 112.709 116.484C114.866 118.992 116.335 122.189 116.931 125.669C117.526 129.148 117.22 132.755 116.053 136.033C114.885 139.311 112.909 142.113 110.372 144.084C107.836 146.055 104.854 147.107 101.803 147.107V111.23C105.894 111.23 109.817 113.119 112.709 116.484C115.602 119.848 117.227 124.411 117.227 129.168V129.168Z" fill="#ED6349"/>
<path opacity="0.37" d="M213.832 94.106C213.832 99.2962 211.181 104.274 206.461 107.944C201.742 111.614 195.34 113.676 188.666 113.676C181.992 113.676 175.59 111.614 170.871 107.944C166.151 104.274 163.5 99.2962 163.5 94.106C163.5 91.5361 164.151 88.9913 165.416 86.617C166.68 84.2427 168.534 82.0853 170.871 80.2681C173.208 78.4508 175.982 77.0094 179.035 76.0259C182.089 75.0424 185.361 74.5362 188.666 74.5362V113.676C183.689 113.676 178.823 112.528 174.685 110.378C170.546 108.227 167.32 105.171 165.416 101.595C163.511 98.0191 163.012 94.0843 163.984 90.2881C164.955 86.4919 167.351 83.0049 170.871 80.2681C174.39 77.5312 178.875 75.6674 183.756 74.9123C188.638 74.1572 193.698 74.5447 198.297 76.0259C202.895 77.5071 206.826 80.0154 209.591 83.2336C212.356 86.4519 213.832 90.2355 213.832 94.106V94.106Z" fill="#ED6349"/>
<path opacity="0.37" d="M193.537 190.324C193.537 194.001 192.468 197.527 190.565 200.126C188.662 202.726 186.081 204.186 183.389 204.186C180.698 204.186 178.117 202.726 176.214 200.126C174.311 197.527 173.242 194.001 173.242 190.324C173.242 187.583 173.837 184.903 174.952 182.623C176.067 180.343 177.652 178.567 179.506 177.517C181.36 176.468 183.401 176.194 185.369 176.729C187.338 177.264 189.146 178.584 190.565 180.522C191.984 182.461 192.95 184.931 193.342 187.62C193.733 190.309 193.532 193.096 192.764 195.629C191.996 198.162 190.696 200.327 189.027 201.85C187.358 203.373 185.396 204.186 183.389 204.186C181.382 204.186 179.421 203.373 177.752 201.85C176.083 200.327 174.783 198.162 174.014 195.629C173.246 193.096 173.045 190.309 173.437 187.62C173.829 184.931 174.795 182.461 176.214 180.522C177.633 178.584 179.441 177.264 181.41 176.729C183.378 176.194 185.418 176.468 187.273 177.517C189.127 178.567 190.712 180.343 191.827 182.623C192.942 184.903 193.537 187.583 193.537 190.324V190.324Z" fill="#ED6349"/>
<path opacity="0.37" d="M139.958 213.971C139.958 217.864 138.247 221.597 135.202 224.35C132.157 227.102 128.028 228.649 123.721 228.649C119.415 228.649 115.286 227.102 112.241 224.35C109.196 221.597 107.485 217.864 107.485 213.971C107.485 211.068 108.438 208.231 110.222 205.817C112.006 203.403 114.541 201.522 117.508 200.411C120.475 199.3 123.74 199.01 126.889 199.576C130.039 200.142 132.932 201.54 135.202 203.593C137.473 205.646 139.019 208.261 139.646 211.108C140.272 213.955 139.951 216.906 138.722 219.588C137.493 222.27 135.412 224.562 132.742 226.175C130.072 227.788 126.933 228.649 123.721 228.649C120.51 228.649 117.371 227.788 114.701 226.175C112.031 224.562 109.95 222.27 108.721 219.588C107.492 216.906 107.171 213.955 107.797 211.108C108.424 208.261 109.97 205.646 112.241 203.593C114.511 201.54 117.404 200.142 120.554 199.576C123.703 199.01 126.968 199.3 129.935 200.411C132.902 201.522 135.437 203.403 137.221 205.817C139.005 208.231 139.958 211.068 139.958 213.971V213.971Z" fill="#ED6349"/>
<path opacity="0.37" d="M163.5 149.961C163.5 151.583 162.859 153.139 161.717 154.286C160.575 155.433 159.027 156.077 157.412 156.077C155.797 156.077 154.248 155.433 153.106 154.286C151.964 153.139 151.323 151.583 151.323 149.961C151.323 148.752 151.68 147.569 152.349 146.564C153.018 145.558 153.969 144.774 155.082 144.311C156.194 143.848 157.418 143.727 158.6 143.963C159.781 144.199 160.866 144.782 161.717 145.637C162.569 146.492 163.149 147.582 163.383 148.768C163.618 149.955 163.498 151.184 163.037 152.302C162.576 153.419 161.796 154.375 160.794 155.047C159.793 155.719 158.616 156.077 157.412 156.077C156.207 156.077 155.03 155.719 154.029 155.047C153.028 154.375 152.247 153.419 151.786 152.302C151.326 151.184 151.205 149.955 151.44 148.768C151.675 147.582 152.255 146.492 153.106 145.637C153.958 144.782 155.043 144.199 156.224 143.963C157.405 143.727 158.629 143.848 159.742 144.311C160.854 144.774 161.805 145.558 162.474 146.564C163.143 147.569 163.5 148.752 163.5 149.961Z" fill="#ED6349"/>
<path opacity="0.37" d="M273.093 173.201C273.093 177.742 271.981 182.098 270.002 185.309C268.023 188.52 265.339 190.324 262.54 190.324C259.741 190.324 257.057 188.52 255.078 185.309C253.099 182.098 251.987 177.742 251.987 173.201C251.987 169.814 252.606 166.503 253.765 163.687C254.925 160.871 256.573 158.677 258.502 157.381C260.43 156.085 262.552 155.746 264.599 156.406C266.646 157.067 268.526 158.698 270.002 161.093C271.478 163.487 272.483 166.539 272.891 169.86C273.298 173.182 273.089 176.625 272.29 179.754C271.491 182.883 270.139 185.557 268.403 187.438C266.668 189.32 264.627 190.324 262.54 190.324C260.453 190.324 258.412 189.32 256.677 187.438C254.942 185.557 253.589 182.883 252.79 179.754C251.991 176.625 251.782 173.182 252.19 169.86C252.597 166.539 253.602 163.487 255.078 161.093C256.554 158.698 258.434 157.067 260.481 156.406C262.528 155.746 264.65 156.085 266.579 157.381C268.507 158.677 270.155 160.871 271.315 163.687C272.474 166.503 273.093 169.814 273.093 173.201Z" fill="#ED6349"/>
<path opacity="0.37" d="M220.326 224.164C220.326 229.462 217.974 234.543 213.788 238.29C209.601 242.036 203.923 244.141 198.002 244.141C195.07 244.141 192.167 243.624 189.459 242.621C186.75 241.617 184.289 240.145 182.216 238.29C180.143 236.435 178.499 234.233 177.377 231.809C176.255 229.385 175.677 226.787 175.677 224.164C175.677 221.54 176.255 218.943 177.377 216.519C178.499 214.095 180.143 211.893 182.216 210.038C184.289 208.183 186.75 206.711 189.459 205.707C192.167 204.703 195.07 204.186 198.002 204.186C200.933 204.186 203.836 204.703 206.545 205.707C209.253 206.711 211.715 208.183 213.788 210.038C215.861 211.893 217.505 214.095 218.627 216.519C219.749 218.943 220.326 221.54 220.326 224.164V224.164Z" fill="#ED6349"/>
<path opacity="0.37" d="M235.75 129.984C235.75 131.93 235.194 133.797 234.205 135.173C233.215 136.55 231.873 137.323 230.474 137.323C229.074 137.323 227.732 136.55 226.743 135.173C225.753 133.797 225.197 131.93 225.197 129.984C225.197 128.533 225.507 127.114 226.086 125.907C226.666 124.7 227.49 123.759 228.454 123.204C229.419 122.649 230.479 122.503 231.503 122.786C232.527 123.07 233.467 123.769 234.205 124.795C234.943 125.821 235.445 127.129 235.649 128.552C235.853 129.976 235.748 131.451 235.349 132.792C234.949 134.133 234.273 135.28 233.405 136.086C232.537 136.892 231.517 137.323 230.474 137.323C229.43 137.323 228.41 136.892 227.542 136.086C226.674 135.28 225.998 134.133 225.599 132.792C225.199 131.451 225.095 129.976 225.298 128.552C225.502 127.129 226.005 125.821 226.743 124.795C227.48 123.769 228.421 123.07 229.444 122.786C230.468 122.503 231.529 122.649 232.493 123.204C233.457 123.759 234.281 124.7 234.861 125.907C235.441 127.114 235.75 128.533 235.75 129.984Z" fill="#ED6349"/>
</g>
<path d="M1693.02 210.492C1576.45 137.207 1422.43 129.933 1297.63 191.868L725.886 475.423L774.297 702.994H1930V359.268L1693.02 210.492Z" fill="url(#paint1_linear_2_2)"/>
<path d="M1194.91 501.982C1347.14 490.08 1378.69 403.79 1392.4 338.77C1406.11 273.749 1498 300.198 1528.45 247.301C1558.89 194.403 1528.45 152.966 1528.45 152.966C1450.27 143.598 1369.09 156.382 1297.63 191.868L839.989 418.888C934.617 455.807 1093.43 510.027 1194.91 501.982Z" fill="url(#paint2_linear_2_2)"/>
<path d="M948.88 325.105C895.531 295.68 828.606 293.035 772.514 317.941L745.223 330.064C686.114 356.403 615.623 351.994 561.314 318.603L425.269 235.068C358.343 193.962 268.377 197.598 206.114 244.105L10 390.235V702.994H1635.14L948.88 325.105Z" fill="url(#paint3_linear_2_2)"/>
<path d="M948.88 325.105C915.966 307.031 877.977 299.096 840.537 301.411C829.84 304.607 809.68 315.737 822.571 353.096C839.714 402.688 950.8 428.035 970 485.341C989.2 542.647 939.829 608.77 1019.37 669.382C1040.63 685.582 1098.09 696.162 1171.05 702.994H1635.14L948.88 325.105Z" fill="url(#paint4_linear_2_2)"/>
<path d="M350.526 258.652C385.223 268.9 381.657 316.729 458.457 330.615C535.257 344.611 633.314 344.721 633.314 344.721C607.806 340.864 583.257 332.047 561.314 318.603L425.269 235.068C383.577 209.39 332.834 201.235 285.52 209.941C279.486 230.77 323.92 250.827 350.526 258.652Z" fill="url(#paint5_linear_2_2)"/>
<path d="M31.907 457.243C39.7898 428.979 44.9312 405.584 116.245 396.767C187.56 387.951 204.017 442.502 204.017 442.502C204.017 442.502 238.303 416.714 267.788 427.404C297.274 438.094 291.103 455.176 291.103 455.176C291.103 455.176 330.188 441.18 352.131 450.216C376.131 460.135 366.706 473.135 366.706 473.135C366.706 473.135 400.672 494.48 370.877 505.101C322.975 522.177 281.703 525.4 233.501 524.74C174.036 523.926 128.869 495.256 128.869 495.256C128.869 495.256 88.0373 522.051 62.0444 508.67C45.2372 500.018 27.1457 474.315 31.907 457.243Z" fill="url(#paint6_linear_2_2)"/>
<path d="M1137.36 612.343C1143.85 623.02 1177.39 638.43 1262.93 639.905C1465.54 643.398 1443.57 664.82 1817.55 647.247C1931.78 641.879 1910.57 622.221 1898.04 601.052C1885.8 580.358 1799.09 547.492 1799.09 547.492C1799.09 547.492 1808.09 526.323 1708.92 508.079C1609.76 489.835 1562.21 515.308 1562.21 515.308C1562.21 515.308 1523.23 492.417 1474.82 496.892C1426.2 501.367 1395.15 524.601 1407.78 538.37C1407.78 538.37 1382.72 517.201 1334.11 526.839C1285.49 536.477 1286.34 551.106 1286.34 551.106C1286.34 551.106 1228.09 533.069 1202.81 538.232C1177.54 543.396 1161.9 569.006 1161.9 569.006C1161.9 569.006 1119.76 583.376 1137.36 612.343Z" fill="url(#paint7_linear_2_2)"/>
<path d="M10 790.827H1075.6L636.331 529.203C581.2 496.362 509.063 496.803 454.48 530.194C394.137 567.113 313.223 563.476 257.68 521.158L144.811 435.419C106.549 406.435 56.7657 395.745 10 403.46V790.827H10Z" fill="url(#paint8_linear_2_2)"/>
<path d="M674.183 750.933C717.246 759.309 878.8 732.088 954.229 718.533L636.331 529.203C595.051 504.627 544.034 498.676 498.229 511.349C498.914 523.803 505.909 543.309 538 558.517C589.154 582.762 596.56 595.986 589.154 634.888C581.886 673.79 617.543 739.913 674.183 750.933Z" fill="url(#paint9_linear_2_2)"/>
<path d="M52.2565 478.522C96.8279 509.379 158.542 498.359 190.771 541.338C222.999 584.318 350.542 561.726 364.942 556.436C326.954 556.657 289.102 545.085 258.656 522.053L145.788 436.314C116.714 414.273 81.0565 402.812 45.1251 402.04C34.7022 419.783 19.6165 455.93 52.2565 478.522Z" fill="url(#paint10_linear_2_2)"/>
<path d="M754.686 664.457C731.502 640.202 692.423 651.013 692.423 651.013C692.423 651.013 695.989 621.808 632.629 610.127C569.131 598.445 540.88 630.404 540.88 630.404C540.88 630.404 515.92 615.747 484.926 618.613C453.794 621.478 433.909 636.355 442 645.172C442 645.172 425.954 631.617 394.823 637.788C363.691 643.959 364.24 653.327 364.24 653.327C364.24 653.327 342.673 648.823 332.967 656.259C324.861 662.469 324.057 678.784 324.057 678.784L759.149 683.259C759.149 683.259 765.953 676.246 754.686 664.457Z" fill="url(#paint11_linear_2_2)"/>
<path d="M1777.22 537.798C1733.89 504.407 1670.53 504.627 1627.46 538.46L1546.55 602.268C1506.64 633.676 1448.63 636.431 1405.43 608.99C1366.34 584.084 1314.5 583.754 1275.01 608.219L960.126 802.839H1930V655.607L1777.22 537.798Z" fill="url(#paint12_linear_2_2)"/>
<path d="M1620.61 607.227C1638.3 586.509 1658.87 584.856 1707.28 567.994C1755.42 551.133 1726.62 515.537 1726.21 515.096C1692.06 508.594 1655.44 516.419 1627.46 538.46L1546.55 602.268C1522.27 621.443 1491.14 629.929 1460.83 627.394C1500.61 641.28 1594.55 637.974 1620.61 607.227Z" fill="url(#paint13_linear_2_2)"/>
<path d="M1275.01 608.219L1024.03 763.386L1028.7 802.839H1102.48C1188.06 786.198 1318.34 757.435 1312.86 736.607C1304.63 705.75 1306 683.709 1353.45 652.521C1400.77 621.333 1353.59 591.027 1353.45 590.807C1326.43 587.831 1298.59 593.672 1275.01 608.219Z" fill="url(#paint14_linear_2_2)"/>
<g filter="url(#filter1_d_2_2)">
<path d="M1649.68 706.3C1622.25 698.035 1592.77 697.374 1564.93 704.317L1427.23 738.59C1390.07 747.847 1350.3 743.439 1316.83 726.247L1095.39 606.141C1053.42 584.541 1000.74 572.589 957.544 592.205L596.697 717.321C555.554 735.945 506.731 735.835 465.726 716.99L364.651 670.484C322.137 650.978 271.394 651.529 229.429 672.137L10 779.696V840.198H1930V790.827L1649.68 706.3Z" fill="url(#paint15_linear_2_2)"/>
</g>
<path d="M185 829.641C115 829.641 10 819.641 10 819.641V1079.64H1929V819.641C1929 819.641 1804 818.871 1748 829.641C1692 840.41 1486 829.641 1419 810.64C1352 791.64 1290 770.64 1223 810.641C1156 850.641 936 838.641 874 838.641C812 838.641 619 819.641 514 810.641C409 801.641 255 829.641 185 829.641Z" fill="url(#paint16_diamond_2_2)"/>
<g style="mix-blend-mode:luminosity" opacity="0.5" filter="url(#filter2_f_2_2)">
<path d="M482 990.8C482 1008.78 474.888 1026.03 462.23 1038.74C449.571 1051.46 432.402 1058.6 414.5 1058.6C396.598 1058.6 379.429 1051.46 366.77 1038.74C354.112 1026.03 347 1008.78 347 990.8C347 977.39 350.959 964.282 358.376 953.132C365.793 941.983 376.335 933.293 388.669 928.161C401.003 923.029 414.575 921.687 427.669 924.303C440.762 926.919 452.79 933.376 462.23 942.858C471.67 952.34 478.098 964.421 480.703 977.573C483.307 990.725 481.971 1004.36 476.862 1016.75C471.753 1029.13 463.101 1039.72 452.001 1047.17C440.901 1054.62 427.85 1058.6 414.5 1058.6V923C432.402 923 449.571 930.143 462.23 942.858C474.888 955.573 482 972.818 482 990.8V990.8Z" fill="#F9CB4E"/>
<path d="M482 991.7C482 1008.97 476.026 1025.52 465.393 1037.73C454.76 1049.94 440.338 1056.8 425.3 1056.8C410.262 1056.8 395.84 1049.94 385.207 1037.73C374.574 1025.52 368.6 1008.97 368.6 991.7C368.6 978.824 371.925 966.238 378.156 955.532C384.386 944.827 393.241 936.483 403.602 931.555C413.962 926.628 425.363 925.339 436.362 927.851C447.36 930.363 457.463 936.563 465.393 945.667C473.323 954.772 478.723 966.371 480.91 979C483.098 991.628 481.975 1004.72 477.684 1016.61C473.392 1028.51 466.125 1038.68 456.801 1045.83C447.477 1052.98 436.514 1056.8 425.3 1056.8C414.086 1056.8 403.123 1052.98 393.799 1045.83C384.475 1038.68 377.208 1028.51 372.916 1016.61C368.625 1004.72 367.502 991.628 369.69 979C371.877 966.371 377.277 954.772 385.207 945.667C393.137 936.563 403.24 930.363 414.238 927.851C425.237 925.339 436.638 926.628 446.998 931.555C457.359 936.483 466.214 944.827 472.444 955.532C478.675 966.238 482 978.824 482 991.7V991.7Z" fill="#FAD775"/>
<g opacity="0.37">
<path opacity="0.37" d="M387.336 977.101C387.336 979.956 386.361 982.693 384.626 984.712C382.89 986.73 380.536 987.864 378.082 987.864C375.627 987.864 373.273 986.73 371.538 984.712C369.802 982.693 368.827 979.956 368.827 977.101C368.827 974.972 369.37 972.891 370.387 971.121C371.404 969.351 372.849 967.972 374.54 967.157C376.231 966.342 378.092 966.129 379.887 966.545C381.682 966.96 383.331 967.985 384.626 969.49C385.92 970.996 386.801 972.913 387.158 975.001C387.515 977.089 387.332 979.253 386.632 981.22C385.931 983.187 384.745 984.868 383.223 986.05C381.701 987.233 379.912 987.864 378.082 987.864V966.338C380.536 966.338 382.89 967.472 384.626 969.49C386.361 971.509 387.336 974.246 387.336 977.101V977.101Z" fill="#ED6349"/>
<path opacity="0.37" d="M445.299 956.064C445.299 959.178 443.708 962.164 440.877 964.366C438.045 966.568 434.204 967.805 430.2 967.805C426.195 967.805 422.354 966.568 419.523 964.366C416.691 962.164 415.1 959.178 415.1 956.064C415.1 954.522 415.491 952.995 416.249 951.57C417.008 950.146 418.12 948.851 419.523 947.761C420.925 946.67 422.589 945.806 424.421 945.216C426.253 944.625 428.217 944.322 430.2 944.322V967.805C427.213 967.805 424.294 967.117 421.811 965.827C419.328 964.536 417.392 962.703 416.249 960.557C415.106 958.411 414.807 956.051 415.39 953.773C415.973 951.495 417.411 949.403 419.523 947.761C421.634 946.119 424.325 945 427.254 944.547C430.183 944.094 433.219 944.327 435.978 945.216C438.737 946.104 441.095 947.609 442.754 949.54C444.414 951.471 445.299 953.741 445.299 956.064V956.064Z" fill="#ED6349"/>
<path opacity="0.37" d="M433.122 1013.79C433.122 1016 432.481 1018.12 431.339 1019.68C430.197 1021.24 428.648 1022.11 427.034 1022.11C425.419 1022.11 423.87 1021.24 422.728 1019.68C421.587 1018.12 420.945 1016 420.945 1013.79C420.945 1012.15 421.302 1010.54 421.971 1009.17C422.64 1007.81 423.591 1006.74 424.704 1006.11C425.816 1005.48 427.04 1005.32 428.221 1005.64C429.403 1005.96 430.487 1006.75 431.339 1007.91C432.19 1009.08 432.77 1010.56 433.005 1012.17C433.24 1013.79 433.119 1015.46 432.659 1016.98C432.198 1018.5 431.417 1019.8 430.416 1020.71C429.415 1021.62 428.238 1022.11 427.034 1022.11C425.829 1022.11 424.652 1021.62 423.651 1020.71C422.65 1019.8 421.869 1018.5 421.409 1016.98C420.948 1015.46 420.827 1013.79 421.062 1012.17C421.297 1010.56 421.877 1009.08 422.728 1007.91C423.58 1006.75 424.665 1005.96 425.846 1005.64C427.027 1005.32 428.251 1005.48 429.364 1006.11C430.476 1006.74 431.427 1007.81 432.096 1009.17C432.765 1010.54 433.122 1012.15 433.122 1013.79V1013.79Z" fill="#ED6349"/>
<path opacity="0.37" d="M400.975 1027.98C400.975 1030.32 399.948 1032.56 398.121 1034.21C396.294 1035.86 393.817 1036.79 391.233 1036.79C388.649 1036.79 386.171 1035.86 384.345 1034.21C382.518 1032.56 381.491 1030.32 381.491 1027.98C381.491 1026.24 382.063 1024.54 383.133 1023.09C384.203 1021.64 385.725 1020.51 387.505 1019.85C389.285 1019.18 391.244 1019.01 393.133 1019.35C395.023 1019.69 396.759 1020.52 398.121 1021.76C399.484 1022.99 400.412 1024.56 400.787 1026.26C401.163 1027.97 400.97 1029.74 400.233 1031.35C399.496 1032.96 398.247 1034.34 396.645 1035.31C395.043 1036.27 393.16 1036.79 391.233 1036.79C389.306 1036.79 387.423 1036.27 385.821 1035.31C384.219 1034.34 382.97 1032.96 382.233 1031.35C381.495 1029.74 381.303 1027.97 381.678 1026.26C382.054 1024.56 382.982 1022.99 384.345 1021.76C385.707 1020.52 387.443 1019.69 389.332 1019.35C391.222 1019.01 393.181 1019.18 394.961 1019.85C396.741 1020.51 398.262 1021.64 399.333 1023.09C400.403 1024.54 400.975 1026.24 400.975 1027.98V1027.98Z" fill="#ED6349"/>
<path opacity="0.37" d="M415.1 989.577C415.1 990.55 414.715 991.483 414.03 992.172C413.345 992.86 412.416 993.246 411.447 993.246C410.478 993.246 409.549 992.86 408.864 992.172C408.179 991.483 407.794 990.55 407.794 989.577C407.794 988.851 408.008 988.142 408.41 987.538C408.811 986.935 409.381 986.464 410.049 986.187C410.717 985.909 411.451 985.836 412.16 985.978C412.868 986.119 413.519 986.469 414.03 986.982C414.541 987.495 414.889 988.149 415.03 988.861C415.171 989.573 415.099 990.311 414.822 990.981C414.546 991.652 414.077 992.225 413.477 992.628C412.876 993.031 412.17 993.246 411.447 993.246C410.725 993.246 410.018 993.031 409.417 992.628C408.817 992.225 408.348 991.652 408.072 990.981C407.795 990.311 407.723 989.573 407.864 988.861C408.005 988.149 408.353 987.495 408.864 986.982C409.375 986.469 410.026 986.119 410.734 985.978C411.443 985.836 412.178 985.909 412.845 986.187C413.513 986.464 414.083 986.935 414.485 987.538C414.886 988.142 415.1 988.851 415.1 989.577Z" fill="#ED6349"/>
<path opacity="0.37" d="M480.856 1003.52C480.856 1006.25 480.189 1008.86 479.001 1010.79C477.814 1012.71 476.203 1013.79 474.524 1013.79C472.845 1013.79 471.234 1012.71 470.047 1010.79C468.859 1008.86 468.192 1006.25 468.192 1003.52C468.192 1001.49 468.563 999.502 469.259 997.812C469.955 996.123 470.944 994.806 472.101 994.028C473.258 993.251 474.531 993.047 475.759 993.444C476.988 993.84 478.116 994.819 479.001 996.256C479.887 997.692 480.49 999.523 480.734 1001.52C480.979 1003.51 480.853 1005.57 480.374 1007.45C479.895 1009.33 479.083 1010.93 478.042 1012.06C477.001 1013.19 475.776 1013.79 474.524 1013.79C473.272 1013.79 472.048 1013.19 471.006 1012.06C469.965 1010.93 469.153 1009.33 468.674 1007.45C468.195 1005.57 468.069 1003.51 468.314 1001.52C468.558 999.523 469.161 997.692 470.047 996.256C470.932 994.819 472.061 993.84 473.289 993.444C474.517 993.047 475.79 993.251 476.947 994.028C478.104 994.806 479.093 996.123 479.789 997.812C480.485 999.502 480.856 1001.49 480.856 1003.52Z" fill="#ED6349"/>
<path opacity="0.37" d="M449.196 1034.1C449.196 1037.28 447.785 1040.33 445.273 1042.57C442.761 1044.82 439.354 1046.08 435.801 1046.08C434.042 1046.08 432.3 1045.77 430.675 1045.17C429.05 1044.57 427.573 1043.69 426.33 1042.57C425.086 1041.46 424.099 1040.14 423.426 1038.69C422.753 1037.23 422.406 1035.67 422.406 1034.1C422.406 1032.52 422.753 1030.97 423.426 1029.51C424.099 1028.06 425.086 1026.74 426.33 1025.62C427.573 1024.51 429.05 1023.63 430.675 1023.02C432.3 1022.42 434.042 1022.11 435.801 1022.11C437.56 1022.11 439.302 1022.42 440.927 1023.02C442.552 1023.63 444.029 1024.51 445.273 1025.62C446.516 1026.74 447.503 1028.06 448.176 1029.51C448.849 1030.97 449.196 1032.52 449.196 1034.1V1034.1Z" fill="#ED6349"/>
<path opacity="0.37" d="M458.45 977.59C458.45 978.758 458.117 979.878 457.523 980.704C456.929 981.53 456.124 981.994 455.284 981.994C454.445 981.994 453.639 981.53 453.046 980.704C452.452 979.878 452.118 978.758 452.118 977.59C452.118 976.72 452.304 975.868 452.652 975.144C453 974.42 453.494 973.856 454.073 973.522C454.651 973.189 455.288 973.102 455.902 973.272C456.516 973.442 457.08 973.861 457.523 974.477C457.966 975.093 458.267 975.877 458.389 976.731C458.512 977.586 458.449 978.471 458.209 979.275C457.97 980.08 457.564 980.768 457.043 981.252C456.522 981.735 455.91 981.994 455.284 981.994C454.658 981.994 454.046 981.735 453.525 981.252C453.005 980.768 452.599 980.08 452.359 979.275C452.12 978.471 452.057 977.586 452.179 976.731C452.301 975.877 452.603 975.093 453.046 974.477C453.488 973.861 454.052 973.442 454.667 973.272C455.281 973.102 455.917 973.189 456.496 973.522C457.074 973.856 457.569 974.42 457.917 975.144C458.264 975.868 458.45 976.72 458.45 977.59Z" fill="#ED6349"/>
</g>
</g>
<g style="mix-blend-mode:darken" filter="url(#filter3_f_2_2)">
<mask id="mask0_2_2" style="mask-type:alpha" maskUnits="userSpaceOnUse" x="10" y="787" width="1920" height="293">
<path d="M185.091 829.692C115.055 829.692 10 819.68 10 819.68V1080H1930V819.68C1930 819.68 1804.93 818.909 1748.91 829.692C1692.88 840.474 1486.77 829.692 1419.73 810.669C1352.7 791.645 1290.67 770.619 1223.63 810.669C1156.6 850.718 936.482 838.703 874.45 838.703C812.418 838.703 619.317 819.68 514.263 810.669C409.208 801.657 255.128 829.692 185.091 829.692Z" fill="black" fill-opacity="0.42"/>
</mask>
<g mask="url(#mask0_2_2)">
<g style="mix-blend-mode:darken">
<path d="M1650.53 883.277C1623.09 889.18 1593.59 889.653 1565.74 884.694L1427.97 860.214C1390.79 853.602 1351 856.75 1317.52 869.03L1095.95 954.816C1053.97 970.244 1001.26 978.78 958.037 964.769L597.003 875.405C555.839 862.103 506.99 862.182 465.963 875.642L364.836 908.859C322.3 922.791 271.53 922.397 229.543 907.678L10 830.854V787.64H1931V822.904L1650.53 883.277Z" fill="black" fill-opacity="0.42"/>
</g>
</g>
</g>
</g>
<defs>
<filter id="filter0_d_2_2" x="6" y="0" width="1928" height="1088" filterUnits="userSpaceOnUse" color-interpolation-filters="sRGB">
<feFlood flood-opacity="0" result="BackgroundImageFix"/>
<feColorMatrix in="SourceAlpha" type="matrix" values="0 0 0 0 0 0 0 0 0 0 0 0 0 0 0 0 0 0 127 0" result="hardAlpha"/>
<feOffset dy="4"/>
<feGaussianBlur stdDeviation="2"/>
<feComposite in2="hardAlpha" operator="out"/>
<feColorMatrix type="matrix" values="0 0 0 0 0 0 0 0 0 0 0 0 0 0 0 0 0 0 0.25 0"/>
<feBlend mode="normal" in2="BackgroundImageFix" result="effect1_dropShadow_2_2"/>
<feBlend mode="normal" in="SourceGraphic" in2="effect1_dropShadow_2_2" result="shape"/>
</filter>
<filter id="filter1_d_2_2" x="6" y="582.269" width="1928" height="265.93" filterUnits="userSpaceOnUse" color-interpolation-filters="sRGB">
<feFlood flood-opacity="0" result="BackgroundImageFix"/>
<feColorMatrix in="SourceAlpha" type="matrix" values="0 0 0 0 0 0 0 0 0 0 0 0 0 0 0 0 0 0 127 0" result="hardAlpha"/>
<feOffset dy="4"/>
<feGaussianBlur stdDeviation="2"/>
<feComposite in2="hardAlpha" operator="out"/>
<feColorMatrix type="matrix" values="0 0 0 0 0 0 0 0 0 0 0 0 0 0 0 0 0 0 0.25 0"/>
<feBlend mode="normal" in2="BackgroundImageFix" result="effect1_dropShadow_2_2"/>
<feBlend mode="normal" in="SourceGraphic" in2="effect1_dropShadow_2_2" result="shape"/>
</filter>
<filter id="filter2_f_2_2" x="343" y="919" width="143" height="143.6" filterUnits="userSpaceOnUse" color-interpolation-filters="sRGB">
<feFlood flood-opacity="0" result="BackgroundImageFix"/>
<feBlend mode="normal" in="SourceGraphic" in2="BackgroundImageFix" result="shape"/>
<feGaussianBlur stdDeviation="2" result="effect1_foregroundBlur_2_2"/>
</filter>
<filter id="filter3_f_2_2" x="0" y="777.854" width="1940" height="204.013" filterUnits="userSpaceOnUse" color-interpolation-filters="sRGB">
<feFlood flood-opacity="0" result="BackgroundImageFix"/>
<feBlend mode="normal" in="SourceGraphic" in2="BackgroundImageFix" result="shape"/>
<feGaussianBlur stdDeviation="5" result="effect1_foregroundBlur_2_2"/>
</filter>
<linearGradient id="paint0_linear_2_2" x1="970" y1="0" x2="970" y2="805.688" gradientUnits="userSpaceOnUse">
<stop stop-color="#44164D"/>
<stop offset="0.1488" stop-color="#4A174D"/>
<stop offset="0.3381" stop-color="#59194C"/>
<stop offset="0.5492" stop-color="#731D4A"/>
<stop offset="0.7746" stop-color="#972248"/>
<stop offset="1" stop-color="#C32846"/>
</linearGradient>
<linearGradient id="paint1_linear_2_2" x1="1151.51" y1="172.229" x2="1239.08" y2="414.808" gradientUnits="userSpaceOnUse">
<stop stop-color="#637164"/>
<stop offset="1" stop-color="#0C1941"/>
</linearGradient>
<linearGradient id="paint2_linear_2_2" x1="1187.75" y1="291.445" x2="1228.65" y2="517.87" gradientUnits="userSpaceOnUse">
<stop stop-color="#637164"/>
<stop offset="1" stop-color="#0C1941"/>
</linearGradient>
<linearGradient id="paint3_linear_2_2" x1="884.565" y1="297.55" x2="863.016" y2="431.635" gradientUnits="userSpaceOnUse">
<stop stop-color="#637164"/>
<stop offset="1" stop-color="#3C4F6E"/>
</linearGradient>
<linearGradient id="paint4_linear_2_2" x1="1194.04" y1="376.638" x2="1245.62" y2="726.794" gradientUnits="userSpaceOnUse">
<stop stop-color="#637164"/>
<stop offset="1" stop-color="#355072"/>
</linearGradient>
<linearGradient id="paint5_linear_2_2" x1="448.3" y1="241.618" x2="474.427" y2="386.246" gradientUnits="userSpaceOnUse">
<stop stop-color="#637164"/>
<stop offset="1" stop-color="#355072"/>
</linearGradient>
<linearGradient id="paint6_linear_2_2" x1="378.944" y1="424.19" x2="228.758" y2="527.824" gradientUnits="userSpaceOnUse">
<stop stop-color="white"/>
<stop offset="1" stop-color="#9CB5A4"/>
</linearGradient>
<linearGradient id="paint7_linear_2_2" x1="1445.89" y1="483.028" x2="1560.95" y2="637.283" gradientUnits="userSpaceOnUse">
<stop stop-color="white"/>
<stop offset="1" stop-color="#9CB5A4"/>
</linearGradient>
<linearGradient id="paint8_linear_2_2" x1="601.757" y1="487.043" x2="535.197" y2="679.534" gradientUnits="userSpaceOnUse">
<stop stop-color="#637164"/>
<stop offset="0.9876" stop-color="#1D6A89"/>
</linearGradient>
<linearGradient id="paint9_linear_2_2" x1="710.424" y1="546.891" x2="738.072" y2="734.563" gradientUnits="userSpaceOnUse">
<stop stop-color="#637164"/>
<stop offset="0.9876" stop-color="#1D6A89"/>
</linearGradient>
<linearGradient id="paint10_linear_2_2" x1="208.151" y1="519.88" x2="181.584" y2="556.649" gradientUnits="userSpaceOnUse">
<stop stop-color="#637164"/>
<stop offset="0.9876" stop-color="#1D6A89"/>
</linearGradient>
<linearGradient id="paint11_linear_2_2" x1="508.762" y1="706.609" x2="449" y2="598" gradientUnits="userSpaceOnUse">
<stop stop-color="white"/>
<stop offset="1" stop-color="#9CB5A4"/>
</linearGradient>
<linearGradient id="paint12_linear_2_2" x1="1390.69" y1="559.397" x2="1431.55" y2="756.898" gradientUnits="userSpaceOnUse">
<stop stop-color="#637164"/>
<stop offset="1" stop-color="#29395E"/>
</linearGradient>
<linearGradient id="paint13_linear_2_2" x1="1589.26" y1="554.503" x2="1608.02" y2="640.352" gradientUnits="userSpaceOnUse">
<stop stop-color="#637164"/>
<stop offset="1" stop-color="#355072"/>
</linearGradient>
<linearGradient id="paint14_linear_2_2" x1="1188.78" y1="654.907" x2="1206.6" y2="775.869" gradientUnits="userSpaceOnUse">
<stop stop-color="#637164"/>
<stop offset="1" stop-color="#355072"/>
</linearGradient>
<linearGradient id="paint15_linear_2_2" x1="965.167" y1="499.009" x2="967.824" y2="768.458" gradientUnits="userSpaceOnUse">
<stop stop-color="#637164"/>
<stop offset="0.8837" stop-color="#2778A0"/>
</linearGradient>
<radialGradient id="paint16_diamond_2_2" cx="0" cy="0" r="1" gradientUnits="userSpaceOnUse" gradientTransform="translate(970 796.64) rotate(80.5692) scale(299.042 2577.86)">
<stop stop-color="#292769"/>
<stop offset="1" stop-color="#171467"/>
</radialGradient>
</defs>
</svg>
