<svg width="1066" height="390" viewBox="0 0 1066 390" fill="none" xmlns="http://www.w3.org/2000/svg">
<path d="M0 389.827H1065.6L626.331 128.203C571.2 95.3617 499.063 95.8026 444.48 129.194C384.137 166.113 303.223 162.476 247.68 120.158L134.811 34.4189C96.5486 5.43521 46.7657 -5.25458 0 2.4597V389.827H0Z" fill="url(#paint0_linear_2_22)"/>
<path d="M664.183 349.933C707.246 358.309 868.8 331.088 944.229 317.533L626.331 128.203C585.051 103.627 534.034 97.676 488.229 110.349C488.914 122.803 495.909 142.309 528 157.517C579.154 181.762 586.56 194.986 579.154 233.888C571.886 272.79 607.543 338.913 664.183 349.933Z" fill="url(#paint1_linear_2_22)"/>
<path d="M42.2565 77.522C86.8279 108.379 148.542 97.3587 180.771 140.338C212.999 183.318 340.542 160.726 354.942 155.436C316.954 155.657 279.102 144.085 248.656 121.053L135.788 35.3138C106.714 13.273 71.0565 1.81174 35.1251 1.04031C24.7022 18.7832 9.6165 54.9301 42.2565 77.522Z" fill="url(#paint2_linear_2_22)"/>
<defs>
<linearGradient id="paint0_linear_2_22" x1="591.757" y1="86.0427" x2="525.197" y2="278.534" gradientUnits="userSpaceOnUse">
<stop stop-color="#637164"/>
<stop offset="0.9876" stop-color="#1D6A89"/>
</linearGradient>
<linearGradient id="paint1_linear_2_22" x1="700.424" y1="145.891" x2="728.072" y2="333.563" gradientUnits="userSpaceOnUse">
<stop stop-color="#637164"/>
<stop offset="0.9876" stop-color="#1D6A89"/>
</linearGradient>
<linearGradient id="paint2_linear_2_22" x1="198.151" y1="118.88" x2="171.584" y2="155.649" gradientUnits="userSpaceOnUse">
<stop stop-color="#637164"/>
<stop offset="0.9876" stop-color="#1D6A89"/>
</linearGradient>
</defs>
</svg>
